<?xml version="1.0" encoding="utf-8"?>
<!-- Generator: Adobe Illustrator 16.0.0, SVG Export Plug-In . SVG Version: 6.00 Build 0)  -->
<!DOCTYPE svg PUBLIC "-//W3C//DTD SVG 1.1//EN" "http://www.w3.org/Graphics/SVG/1.1/DTD/svg11.dtd">
<svg version="1.1" id="Layer_1" xmlns="http://www.w3.org/2000/svg" xmlns:xlink="http://www.w3.org/1999/xlink" x="0px" y="0px"
	 width="376px" height="60px" viewBox="0 0 376 60" enable-background="new 0 0 376 60" xml:space="preserve">
<g>
	<path d="M83.821,40.81c0,2.318,0.421,2.951,3.794,3.372v0.843H76.653v-0.843c3.373-0.421,3.794-1.054,3.794-3.372V29.427
		c0-2.109-0.421-2.741-3.373-3.162v-0.843l6.323-1.896h0.422V40.81z"/>
	<path d="M89.3,44.182c3.372-0.421,3.794-1.054,3.794-3.372V29.427c0-2.108-0.422-2.741-3.373-3.162v-0.844l6.534-1.896h0.337
		l-0.126,4.426h0.084c2.445-2.445,5.059-4.426,8.136-4.426c2.825,0,5.271,1.686,5.271,6.323V40.81c0,2.318,0.421,2.951,3.793,3.372
		v0.843h-10.118v-0.843c2.952-0.632,2.952-1.054,2.952-3.372V29.848c0-2.318-1.012-3.794-3.162-3.794
		c-2.15,0-4.047,0.717-6.956,3.162V40.81c0,2.318,0.422,2.951,3.794,3.372v0.843H89.3V44.182z"/>
	<path d="M118.691,30.645h10.414c1.053-4.427-1.637-6.324-4.377-6.324C121.102,24.321,119.323,26.85,118.691,30.645 M114.922,34.229
		c0-7.167,4.434-11.172,9.704-11.172c4.005,0,9.015,2.108,7.75,9.064H118.21c-0.294,5.817,2.741,10.118,7.673,10.118
		c2.741,0,4.891-0.633,6.746-1.687v1.264c-1.265,1.054-3.794,3.162-7.799,3.162C118.547,44.978,114.922,39.919,114.922,34.229"/>
	<path d="M167.883,40.81c0,2.318,0.422,2.951,3.794,3.372v0.843h-10.961v-0.843c3.372-0.421,3.793-1.054,3.793-3.372V29.427
		c0-2.109-0.421-2.741-3.372-3.162v-0.843l6.323-1.896h0.422V40.81z"/>
	<path d="M204.98,20.784c1.349-1.687,2.108-4.004-1.518-4.427v-0.843h10.539v0.843c-2.909,0.422-4.806,1.518-6.281,3.373
		l-7.589,9.485l9.275,10.75c1.518,1.771,3.583,3.793,6.282,4.215v0.843h-12.226v-0.843c3.373-0.422,3.078-2.191,1.518-4.004
		l-6.535-7.588c-1.475-1.687-1.896-1.898-3.583-1.898v10.118c0,2.319,0.421,2.951,3.794,3.373v0.843h-10.961v-0.843
		c3.373-0.422,3.795-1.054,3.795-3.373V19.73c0-2.319-0.422-2.951-3.795-3.373v-0.843h10.961v0.843
		c-3.374,0.422-3.794,1.054-3.794,3.373v9.697c2.529,0,3.499-0.464,4.848-2.109L204.98,20.784z"/>
	<path d="M225.384,40.81c0,2.318,0.422,2.951,3.794,3.372v0.843h-10.96v-0.843c3.372-0.421,3.794-1.054,3.794-3.372V29.427
		c0-2.109-0.422-2.741-3.373-3.162v-0.843l6.324-1.896h0.421V40.81z"/>
	<path d="M246.44,32.71c0,6.239,3.162,9.528,7.673,9.528c2.741,0,4.89-0.632,6.746-1.687v1.264c-1.265,1.054-3.794,3.162-7.8,3.162
		c-6.281,0-9.907-5.059-9.907-10.75c0-7.167,5.059-11.172,10.329-11.172c4.595,0,7.378,2.571,7.378,5.269
		c0,1.476-1.181,2.108-2.277,2.108c-0.928,0-1.812-0.464-1.771-1.349c0.211-3.077-0.294-4.764-3.541-4.764
		C249.054,24.321,246.44,27.82,246.44,32.71"/>
	<path d="M274.234,43.714c4.115,0,6.9-3.193,6.9-9.518c0-6.323-2.785-9.875-6.9-9.875c-4.116,0-6.945,3.24-6.945,9.563
		C267.29,40.208,270.118,43.714,274.234,43.714 M274.411,23.057c6.195,0,10.532,4.89,10.444,10.961
		c-0.132,6.07-4.646,10.96-10.843,10.96c-6.195,0-10.532-4.89-10.399-10.96C263.701,27.947,268.215,23.057,274.411,23.057"/>
	<path d="M318.494,40.81c0,2.318,0.421,2.951,3.794,3.372v0.843h-10.96v-0.843c3.372-0.421,3.794-1.054,3.794-3.372V29.427
		c0-2.109-0.422-2.741-3.373-3.162v-0.843l6.325-1.896h0.421V40.81z"/>
	<path d="M323.974,44.182c3.373-0.421,3.795-1.054,3.795-3.372V29.427c0-2.108-0.422-2.741-3.374-3.162v-0.844l6.535-1.896h0.337
		l-0.126,4.426h0.084c2.445-2.445,5.059-4.426,8.137-4.426c2.824,0,5.27,1.686,5.27,6.323V40.81c0,2.318,0.421,2.951,3.794,3.372
		v0.843h-10.119v-0.843c2.951-0.632,2.951-1.054,2.951-3.372V29.848c0-2.318-1.011-3.794-3.162-3.794
		c-2.15,0-4.048,0.717-6.956,3.162V40.81c0,2.318,0.422,2.951,3.794,3.372v0.843h-10.961V44.182z"/>
	<path d="M40.979,27.48c-3.032-1.221-6.023-2.949-6.023-6.529c0-3.159,1.853-4.844,5.391-4.844c3.623,0,6.361,2.317,7.035,7.372
		h1.053l-0.831-7.569l-0.718-0.697c0,0-0.908,0.367-2.003,0.058c-1.513-0.424-3.087-0.637-4.578-0.637
		c-5.771,0-8.93,3.37-8.93,7.498c0,4.296,3.244,6.697,7.498,8.508c3.159,1.347,6.823,3.032,6.823,6.908
		c0,3.453-1.937,5.938-5.771,5.938c-3.159,0-7.287-1.052-7.918-8.003h-1.053l0.369,7.771l0.763,0.688
		c0.374-0.097,1.116-0.236,1.751-0.018c1.887,0.646,4.027,1.036,6.089,1.036c5.644,0,9.351-3.37,9.351-8.424
		C49.276,31.903,45.19,29.165,40.979,27.48"/>
	<path d="M142.615,40.817c0,2.319,0.441,2.952,3.963,3.374v0.844H135.13V44.19c3.522-0.422,3.963-1.055,3.963-3.374V18.469
		c0-2.108-0.441-2.741-3.523-3.164v-0.843l6.604-1.897h0.44V40.817z"/>
	<path d="M155.262,40.817c0,2.319,0.44,2.952,3.962,3.374v0.844h-11.448V44.19c3.522-0.422,3.963-1.055,3.963-3.374V18.469
		c0-2.108-0.44-2.741-3.523-3.164v-0.843l6.605-1.897h0.44V40.817z"/>
	<path d="M238.067,40.817c0,2.32,0.44,2.952,3.963,3.374v0.844h-11.448V44.19c3.522-0.421,3.962-1.053,3.962-3.373V18.469
		c0-2.108-0.44-2.741-3.522-3.163v-0.843l6.604-1.897h0.44V40.817z"/>
	<path d="M293.235,40.817c0,2.319,0.44,2.952,3.963,3.374v0.844H285.75V44.19c3.523-0.422,3.962-1.055,3.962-3.374V18.469
		c0-2.108-0.439-2.741-3.522-3.164v-0.843l6.605-1.897h0.439V40.817z"/>
	<path d="M305.883,40.817c0,2.319,0.441,2.952,3.963,3.374v0.844h-11.448V44.19c3.522-0.422,3.962-1.055,3.962-3.374V18.469
		c0-2.108-0.44-2.741-3.522-3.164v-0.843l6.604-1.897h0.44V40.817z"/>
	<path d="M81.869,14.515c-0.826,0.581-1.417,1.173-1.999,1.999v0.531c0.581,0.827,1.172,1.418,1.999,1.999h0.531
		c0.826-0.581,1.417-1.172,1.999-1.999v-0.531c-0.581-0.826-1.171-1.417-1.999-1.999H81.869z"/>
	<path d="M316.543,14.515c-0.826,0.581-1.417,1.173-1.998,1.999v0.531c0.581,0.827,1.171,1.418,1.998,1.999h0.531
		c0.827-0.581,1.417-1.172,1.999-1.999c0.001-0.212,0.001-0.318,0-0.531c-0.581-0.826-1.171-1.417-1.999-1.999H316.543z"/>
	<path d="M58.595,27.349v10.217c0,4.835,2.943,6.097,5.045,6.097c4.625,0,7.147-3.994,6.938-9.67
		c-0.209-5.466-3.196-8.619-6.727-8.619C61.706,25.373,59.856,26.256,58.595,27.349 M58.679,26.003
		c1.598-1.682,4.121-2.943,6.644-2.943c5.465,0,8.829,4.625,8.829,10.932c0,6.728-5.255,10.932-10.722,10.932
		c-1.555,0-3.573-0.42-4.835-1.261v7.568c0,2.312,0.421,2.943,3.784,3.364v0.84H51.867v-0.84c2.943-0.421,3.364-1.052,3.364-3.364
		V28.947c0-2.103-0.42-2.733-3.364-3.154v-0.841l6.517-1.892h0.337l-0.126,2.943H58.679z"/>
	<path d="M165.948,14.515c-0.826,0.581-1.417,1.173-1.999,1.999v0.531c0.581,0.827,1.172,1.418,1.999,1.999h0.531
		c0.826-0.581,1.417-1.172,1.999-1.999c0-0.212,0-0.318,0-0.531c-0.581-0.826-1.171-1.417-1.999-1.999H165.948z"/>
	<path d="M223.485,14.515c-0.826,0.581-1.417,1.173-1.999,1.999v0.531c0.581,0.827,1.172,1.418,1.999,1.999h0.531
		c0.827-0.581,1.417-1.172,1.999-1.999c0-0.212,0-0.318,0-0.531c-0.581-0.826-1.171-1.417-1.999-1.999H223.485z"/>
</g>
</svg>
