<?xml version="1.0" encoding="utf-8"?>
<!-- Generator: Adobe Illustrator 14.0.0, SVG Export Plug-In . SVG Version: 6.00 Build 43363)  -->
<!DOCTYPE svg PUBLIC "-//W3C//DTD SVG 1.1//EN" "http://www.w3.org/Graphics/SVG/1.1/DTD/svg11.dtd">
<svg version="1.1" id="Layer_1" xmlns="http://www.w3.org/2000/svg" xmlns:xlink="http://www.w3.org/1999/xlink" x="0px" y="0px"
	 width="378.467px" height="72.912px" viewBox="0 0 378.467 72.912" enable-background="new 0 0 378.467 72.912"
	 xml:space="preserve">
<g>
	<defs>
		<rect id="SVGID_1_" x="-6.986" y="-4.756" width="634" height="122.142"/>
	</defs>
	<clipPath id="SVGID_2_">
		<use xlink:href="#SVGID_1_"  overflow="visible"/>
	</clipPath>
	<path clip-path="url(#SVGID_2_)" d="M38.14,24.24h0.652v5.43H38.1c-0.161-1.499-0.705-2.673-1.632-3.519
		c-0.925-0.837-2.097-1.259-3.508-1.259c-1.248,0-2.251,0.314-3.012,0.948c-0.771,0.629-1.148,1.474-1.148,2.528
		c0,0.97,0.317,1.864,0.944,2.662c0.636,0.806,2.006,1.837,4.111,3.1c2.444,1.462,4.094,2.742,4.937,3.831
		c0.838,1.098,1.257,2.342,1.257,3.755c0,1.815-0.638,3.368-1.926,4.656c-1.292,1.291-2.841,1.938-4.657,1.938
		c-1.046,0-2.388-0.294-4.017-0.872c-0.67-0.235-1.104-0.352-1.286-0.352c-0.378,0-0.676,0.291-0.884,0.885h-0.693v-6.255h0.693
		c0.015,1.721,0.577,3.106,1.686,4.143c1.109,1.041,2.405,1.562,3.891,1.562c1.403,0,2.533-0.378,3.381-1.132
		c0.843-0.748,1.271-1.749,1.271-2.998c0-0.941-0.35-1.834-1.047-2.691c-0.7-0.855-2.152-1.957-4.36-3.313
		c-1.81-1.113-3.015-1.991-3.624-2.64c-0.602-0.644-1.047-1.349-1.334-2.125c-0.294-0.766-0.436-1.614-0.436-2.536
		c0-1.779,0.587-3.219,1.746-4.325c1.171-1.106,2.683-1.662,4.55-1.662c1.028,0,2.147,0.208,3.361,0.617
		c0.563,0.186,0.956,0.275,1.183,0.275c0.181,0,0.31-0.043,0.37-0.116C37.987,24.696,38.055,24.516,38.14,24.24"/>
	<path clip-path="url(#SVGID_2_)" d="M46.888,33.026v2.409c0.907-0.885,1.731-1.5,2.479-1.869c0.742-0.361,1.575-0.54,2.502-0.54
		c1.861,0,3.4,0.707,4.625,2.125c1.226,1.414,1.845,3.192,1.845,5.335c0,2.209-0.677,4.049-2.028,5.51
		c-1.354,1.459-3.053,2.195-5.097,2.195c-1.41,0-2.852-0.57-4.326-1.699v9.417c0,0.976,0.165,1.617,0.5,1.92
		c0.333,0.311,0.965,0.469,1.887,0.469v0.671h-7.664v-0.671c0.989,0,1.653-0.141,1.994-0.417c0.344-0.274,0.513-0.806,0.513-1.58
		V36.364c0-0.959-0.14-1.577-0.438-1.84c-0.283-0.257-0.976-0.393-2.069-0.393v-0.673l4.582-0.432H46.888z M46.888,36.501v8.963
		c1.116,1.185,2.434,1.776,3.953,1.776c1.28,0,2.354-0.596,3.22-1.796c0.857-1.196,1.294-2.679,1.294-4.463
		c0-1.918-0.437-3.503-1.294-4.755c-0.865-1.25-1.965-1.876-3.295-1.876C49.42,34.349,48.125,35.066,46.888,36.501"/>
	<path clip-path="url(#SVGID_2_)" d="M65.11,33.028h0.69v12.056c0,0.791,0.172,1.321,0.512,1.584
		c0.337,0.262,0.967,0.395,1.874,0.395v0.673h-7.838v-0.673c1.142,0,1.883-0.129,2.214-0.39c0.328-0.251,0.493-0.783,0.493-1.589
		v-8.812c0-0.872-0.153-1.445-0.46-1.728c-0.298-0.272-1.046-0.416-2.247-0.416V33.46L65.11,33.028z M64.474,25.621
		c0.487,0,0.898,0.167,1.236,0.504c0.336,0.337,0.501,0.748,0.501,1.234c0,0.49-0.165,0.906-0.508,1.254
		c-0.345,0.349-0.75,0.523-1.229,0.523c-0.485,0-0.908-0.174-1.257-0.523c-0.359-0.348-0.537-0.764-0.537-1.254
		c0-0.486,0.174-0.896,0.523-1.234C63.551,25.788,63.976,25.621,64.474,25.621"/>
	<path clip-path="url(#SVGID_2_)" d="M74.585,33.026v2.866c1.674-1.91,3.396-2.866,5.174-2.866c1.38,0,2.534,0.47,3.457,1.415
		c0.92,0.942,1.381,2.182,1.381,3.723v6.468c0,0.986,0.16,1.639,0.492,1.956c0.323,0.318,0.973,0.474,1.936,0.474v0.673h-7.644
		v-0.673c0.951,0,1.596-0.121,1.945-0.367c0.349-0.237,0.526-0.71,0.526-1.412v-7.492c0-1.006-0.303-1.803-0.902-2.395
		c-0.594-0.594-1.364-0.887-2.299-0.887c-1.343,0-2.693,0.933-4.066,2.802v7.004c0,1.186,0.153,1.942,0.461,2.264
		c0.303,0.324,0.946,0.483,1.927,0.483v0.673H69.43v-0.673c1.098,0,1.769-0.17,2.016-0.523c0.252-0.35,0.377-1.093,0.377-2.227
		v-8.079c0-0.862-0.146-1.427-0.454-1.696c-0.307-0.271-0.954-0.406-1.938-0.406v-0.673l4.462-0.432H74.585z"/>
	<path clip-path="url(#SVGID_2_)" d="M102.644,44.065v1.042c-0.868,1.109-1.759,1.896-2.657,2.374
		c-0.903,0.47-1.986,0.708-3.246,0.708c-2.244,0-4.093-0.703-5.541-2.104c-1.452-1.404-2.181-3.179-2.181-5.339
		c0-2.177,0.694-4.003,2.086-5.485c1.382-1.489,3.085-2.232,5.102-2.232c1.656,0,3.105,0.556,4.344,1.676
		c1.236,1.121,1.853,2.457,1.853,4.007v0.296H91.881v0.197c0,1.583,0.245,2.954,0.723,4.119c0.483,1.165,1.18,2.074,2.102,2.732
		c0.919,0.659,1.881,0.987,2.877,0.987c0.944,0,1.739-0.193,2.404-0.583C100.65,46.073,101.539,45.27,102.644,44.065 M91.881,38.318
		h7.801V38.04c0-1.275-0.37-2.291-1.097-3.04c-0.731-0.747-1.642-1.125-2.736-1.125c-1.156,0-2.086,0.397-2.792,1.187
		C92.35,35.849,91.962,36.935,91.881,38.318"/>
	<path clip-path="url(#SVGID_2_)" d="M112.511,47.063h0.379v0.667h-7.995v-0.667h0.731c0.737,0,1.23-0.188,1.502-0.575
		c0.263-0.381,0.389-1.091,0.389-2.131V25.462c0-0.737-0.144-1.249-0.435-1.526c-0.283-0.282-0.787-0.424-1.498-0.424h-0.926v-0.669
		l4.938-0.496h0.668v22.702c0,0.779,0.159,1.304,0.476,1.588C111.057,46.92,111.646,47.063,112.511,47.063"/>
	<path clip-path="url(#SVGID_2_)" d="M122.225,47.063h0.381v0.667h-8v-0.667h0.732c0.737,0,1.236-0.188,1.502-0.575
		c0.263-0.381,0.394-1.091,0.394-2.131V25.462c0-0.737-0.146-1.249-0.436-1.526c-0.285-0.282-0.784-0.424-1.498-0.424h-0.927v-0.669
		l4.936-0.496h0.67v22.702c0,0.779,0.157,1.304,0.475,1.588C120.773,46.92,121.359,47.063,122.225,47.063"/>
	<path clip-path="url(#SVGID_2_)" d="M128.72,33.028h0.695v12.056c0,0.791,0.17,1.321,0.512,1.584
		c0.343,0.262,0.967,0.395,1.878,0.395v0.673h-7.838v-0.673c1.145,0,1.883-0.129,2.21-0.39c0.33-0.251,0.496-0.783,0.496-1.589
		v-8.812c0-0.872-0.149-1.445-0.461-1.728c-0.3-0.272-1.05-0.416-2.245-0.416V33.46L128.72,33.028z M128.092,25.621
		c0.488,0,0.898,0.167,1.234,0.504c0.334,0.337,0.498,0.748,0.498,1.234c0,0.49-0.164,0.906-0.51,1.254
		c-0.341,0.349-0.747,0.523-1.223,0.523c-0.487,0-0.908-0.174-1.261-0.523c-0.357-0.348-0.535-0.764-0.535-1.254
		c0-0.486,0.172-0.896,0.523-1.234C127.167,25.788,127.594,25.621,128.092,25.621"/>
	<path clip-path="url(#SVGID_2_)" d="M215.879,47.735v-0.671c1.013,0,1.703-0.27,2.072-0.82c0.37-0.546,0.549-1.495,0.549-2.855
		V28.938c0-1.391-0.179-2.356-0.544-2.892c-0.359-0.535-1.053-0.798-2.077-0.798V24.58h8.287v0.669
		c-0.969,0-1.642,0.275-2.023,0.826c-0.373,0.555-0.564,1.512-0.564,2.864v6.991l7.572-7.44c0.801-0.806,1.199-1.452,1.199-1.935
		c0-0.674-0.488-1.111-1.462-1.306V24.58h8.744v0.669h-1.147c-0.692,0-1.495,0.233-2.396,0.7c-0.9,0.467-1.723,1.082-2.476,1.846
		l-7.206,7.121l9.575,9.701c0.95,0.978,1.678,1.62,2.192,1.909c0.511,0.293,1.233,0.471,2.152,0.538v0.671h-5.512l-11.236-11.351
		v6.999c0,1.361,0.182,2.31,0.547,2.86c0.362,0.551,1.043,0.82,2.041,0.82v0.671H215.879z"/>
	<path clip-path="url(#SVGID_2_)" d="M244.261,33.028h0.694v12.056c0,0.791,0.165,1.321,0.511,1.584
		c0.34,0.262,0.965,0.395,1.878,0.395v0.673h-7.843v-0.673c1.146,0,1.886-0.129,2.219-0.39c0.326-0.251,0.489-0.783,0.489-1.589
		v-8.812c0-0.872-0.15-1.445-0.456-1.728c-0.3-0.272-1.048-0.416-2.252-0.416V33.46L244.261,33.028z M243.629,25.621
		c0.486,0,0.902,0.167,1.238,0.504c0.332,0.337,0.499,0.748,0.499,1.234c0,0.49-0.167,0.906-0.511,1.254
		c-0.346,0.349-0.752,0.523-1.227,0.523c-0.485,0-0.905-0.174-1.262-0.523c-0.356-0.348-0.536-0.764-0.536-1.254
		c0-0.486,0.176-0.896,0.523-1.234C242.707,25.788,243.127,25.621,243.629,25.621"/>
	<path clip-path="url(#SVGID_2_)" d="M256.494,47.063h0.383v0.667h-8.002v-0.667h0.731c0.736,0,1.238-0.188,1.504-0.575
		c0.257-0.381,0.39-1.091,0.39-2.131V25.462c0-0.737-0.146-1.249-0.431-1.526c-0.291-0.282-0.789-0.424-1.504-0.424h-0.926v-0.669
		l4.938-0.496h0.669v22.702c0,0.779,0.158,1.304,0.483,1.588C255.04,46.92,255.629,47.063,256.494,47.063"/>
	<path clip-path="url(#SVGID_2_)" d="M271.93,33.026v5.051h-0.69c-0.299-1.314-0.881-2.351-1.732-3.12
		c-0.858-0.76-1.877-1.142-3.06-1.142c-1.427,0-2.584,0.555-3.473,1.659c-0.897,1.107-1.347,2.538-1.347,4.306
		c0,1.946,0.528,3.631,1.587,5.049c1.06,1.421,2.321,2.137,3.78,2.137c0.975,0,1.939-0.263,2.887-0.793
		c0.964-0.521,1.781-1.255,2.463-2.189v1.043c-1.55,2.108-3.655,3.166-6.314,3.166c-2.122,0-3.849-0.675-5.183-2.019
		c-1.337-1.344-2.007-3.083-2.007-5.232c0-2.197,0.725-4.062,2.164-5.603c1.438-1.543,3.182-2.312,5.221-2.312
		c0.91,0,1.925,0.185,3.041,0.557c0.489,0.149,0.827,0.232,1.006,0.232c0.416,0,0.734-0.263,0.967-0.789H271.93z"/>
	<path clip-path="url(#SVGID_2_)" d="M289.832,40.629c0,2.156-0.748,3.96-2.238,5.398c-1.49,1.441-3.361,2.162-5.596,2.162
		c-2.243,0-4.108-0.721-5.603-2.162c-1.496-1.438-2.235-3.242-2.235-5.398c0-2.189,0.739-4.003,2.222-5.439
		c1.491-1.446,3.36-2.165,5.616-2.165c2.25,0,4.112,0.719,5.603,2.165C289.084,36.626,289.832,38.44,289.832,40.629 M286.85,40.638
		c0-2.046-0.433-3.696-1.296-4.947c-0.877-1.246-2.061-1.876-3.556-1.876c-1.504,0-2.683,0.613-3.557,1.843
		c-0.867,1.223-1.302,2.885-1.302,4.98c0,2.056,0.431,3.699,1.289,4.923c0.865,1.224,2.057,1.84,3.569,1.84
		c1.507,0,2.696-0.622,3.562-1.865C286.421,44.302,286.85,42.667,286.85,40.638"/>
	<path clip-path="url(#SVGID_2_)" d="M299.56,47.063h0.378v0.667h-8v-0.667h0.737c0.73,0,1.229-0.188,1.501-0.575
		c0.259-0.381,0.387-1.091,0.387-2.131V25.462c0-0.737-0.145-1.249-0.435-1.526c-0.284-0.282-0.785-0.424-1.496-0.424h-0.926v-0.669
		l4.938-0.496h0.669v22.702c0,0.779,0.158,1.304,0.474,1.588C298.103,46.92,298.691,47.063,299.56,47.063"/>
	<path clip-path="url(#SVGID_2_)" d="M309.026,47.063h0.383v0.667h-7.999v-0.667h0.731c0.737,0,1.235-0.188,1.502-0.575
		c0.261-0.381,0.392-1.091,0.392-2.131V25.462c0-0.737-0.144-1.249-0.435-1.526c-0.29-0.282-0.783-0.424-1.503-0.424h-0.922v-0.669
		l4.935-0.496h0.673v22.702c0,0.779,0.155,1.304,0.478,1.588C307.578,46.92,308.166,47.063,309.026,47.063"/>
	<path clip-path="url(#SVGID_2_)" d="M315.285,33.028h0.69v12.056c0,0.791,0.171,1.321,0.511,1.584
		c0.345,0.262,0.972,0.395,1.878,0.395v0.673h-7.834v-0.673c1.142,0,1.878-0.129,2.21-0.39c0.327-0.251,0.49-0.783,0.49-1.589
		v-8.812c0-0.872-0.15-1.445-0.452-1.728c-0.304-0.272-1.053-0.416-2.248-0.416V33.46L315.285,33.028z M314.654,25.621
		c0.485,0,0.897,0.167,1.235,0.504c0.33,0.337,0.506,0.748,0.506,1.234c0,0.49-0.176,0.906-0.519,1.254
		c-0.341,0.349-0.75,0.523-1.223,0.523c-0.485,0-0.914-0.174-1.268-0.523c-0.349-0.348-0.531-0.764-0.531-1.254
		c0-0.486,0.18-0.896,0.524-1.234C313.726,25.788,314.153,25.621,314.654,25.621"/>
	<path clip-path="url(#SVGID_2_)" d="M324.516,33.026v2.866c1.678-1.91,3.401-2.866,5.176-2.866c1.382,0,2.534,0.47,3.452,1.415
		c0.92,0.942,1.382,2.182,1.382,3.723v6.468c0,0.986,0.172,1.639,0.499,1.956c0.327,0.318,0.973,0.474,1.931,0.474v0.673h-7.638
		v-0.673c0.947,0,1.595-0.121,1.943-0.367c0.349-0.237,0.524-0.71,0.524-1.412v-7.492c0-1.006-0.298-1.803-0.897-2.395
		c-0.598-0.594-1.366-0.887-2.301-0.887c-1.346,0-2.697,0.933-4.071,2.802v7.004c0,1.186,0.157,1.942,0.46,2.264
		c0.31,0.324,0.953,0.483,1.936,0.483v0.673h-7.546v-0.673c1.096,0,1.77-0.17,2.016-0.523c0.252-0.35,0.376-1.093,0.376-2.227
		v-8.079c0-0.862-0.152-1.427-0.456-1.696c-0.302-0.271-0.946-0.406-1.936-0.406v-0.673l4.462-0.432H324.516z"/>
	<path clip-path="url(#SVGID_2_)" d="M169.731,9.636v11.453l-1.234-0.104c-0.312-2.38-0.886-3.305-1.706-4.718
		c-0.82-1.412-1.738-2.437-3.259-3.265c-1.512-0.83-3.09-1.243-4.717-1.243c-1.837,0-3.357,0.556-4.555,1.677
		c-1.205,1.126-1.802,2.398-1.802,3.832c0,1.094,0.379,2.092,1.142,2.998c1.089,1.321,3.697,3.085,7.812,5.295
		c3.357,1.804,5.646,3.179,6.876,4.145c1.227,0.968,2.175,2.102,2.836,3.409c0.665,1.308,0.997,2.675,0.997,4.104
		c0,2.725-1.06,5.07-3.169,7.038c-2.109,1.969-4.827,2.954-8.149,2.954c-1.042,0-2.023-0.081-2.94-0.238
		c-0.55-0.087-1.683-0.414-3.401-0.968c-1.724-0.553-2.813-0.836-3.277-0.836c-0.441,0-0.787,0.133-1.043,0.4
		c-0.261,0.262-0.453,0.812-0.568,1.643h-0.986V34.887h0.986c0.452,2.578,1.076,4.51,1.852,5.792c0.778,1.28,1.96,2.343,3.561,3.192
		c1.603,0.85,3.355,1.271,5.264,1.271c2.208,0,3.952-0.583,5.234-1.749c1.276-1.165,1.921-2.545,1.921-4.134
		c0-0.884-0.244-1.775-0.728-2.673c-0.493-0.906-1.242-1.741-2.267-2.516c-0.694-0.531-2.571-1.659-5.646-3.383
		c-3.073-1.722-5.263-3.093-6.555-4.121c-1.304-1.021-2.284-2.156-2.957-3.392c-0.672-1.235-1.009-2.594-1.009-4.081
		c0-2.582,0.992-4.8,2.966-6.66c1.981-1.866,4.499-2.798,7.555-2.798c1.91,0,3.929,0.467,6.069,1.403
		c0.987,0.442,1.686,0.66,2.092,0.66c0.462,0,0.834-0.135,1.126-0.407c0.289-0.273,0.524-0.829,0.701-1.656H169.731z"/>
	<path clip-path="url(#SVGID_2_)" d="M181.174,36.147l13.253,13.172c2.175,2.172,4.022,3.653,5.563,4.44
		c1.537,0.785,3.068,1.228,4.607,1.331v0.985h-17.084V55.09c1.015,0,1.756-0.168,2.204-0.512c0.457-0.345,0.679-0.731,0.679-1.152
		c0-0.425-0.08-0.799-0.25-1.142c-0.167-0.334-0.722-0.96-1.656-1.877l-12.404-12.274v11.582c0,1.82,0.115,3.024,0.349,3.602
		c0.176,0.447,0.543,0.827,1.11,1.145c0.758,0.421,1.564,0.628,2.406,0.628h1.223v0.985h-15.314V55.09h1.271
		c1.486,0,2.562-0.43,3.23-1.292c0.425-0.568,0.64-1.927,0.64-4.083v-23.21c0-1.82-0.085-3.348-0.317-3.949
		c-0.193-0.501-0.493-0.915-0.778-1.07c-0.536-0.291-1.506-0.228-1.506-0.228v-1.112h12.774v0.976h-1.223
		c-0.825,0-1.63,0.206-2.406,0.611c-0.546,0.287-0.928,0.711-1.142,1.272c-0.207,0.568-0.317,1.732-0.317,3.5V37.5
		c0.356-0.332,1.562-1.452,3.634-3.364c5.242-4.806,8.417-8.013,9.513-9.62c0.473-0.708,0.715-1.324,0.715-1.854
		c0-0.404-0.188-0.767-0.559-1.069c-0.374-0.311-0.998-0.47-1.875-0.47h-0.826v-0.976h13.195v0.976
		c-0.781,0.02-1.483,0.128-2.118,0.322c-0.64,0.193-1.417,0.572-2.33,1.124c-0.927,0.556-2.056,1.458-3.398,2.694
		c-0.384,0.35-2.182,2.162-5.376,5.433L181.174,36.147z"/>
</g>
</svg>
