<?xml version="1.0" encoding="utf-8"?>
<!-- Generator: Adobe Illustrator 14.0.0, SVG Export Plug-In . SVG Version: 6.00 Build 43363)  -->
<!DOCTYPE svg PUBLIC "-//W3C//DTD SVG 1.1//EN" "http://www.w3.org/Graphics/SVG/1.1/DTD/svg11.dtd">
<svg version="1.1" id="Layer_1" xmlns="http://www.w3.org/2000/svg" xmlns:xlink="http://www.w3.org/1999/xlink" x="0px" y="0px"
	 width="319px" height="50.602px" viewBox="9.861 4.956 319 50.602" enable-background="new 9.861 4.956 319 50.602"
	 xml:space="preserve">
<g>
	<g>
		<defs>
			<rect id="SVGID_1_" x="-18.73" y="-8.756" width="634" height="122.142"/>
		</defs>
		<clipPath id="SVGID_2_">
			<use xlink:href="#SVGID_1_"  overflow="visible"/>
		</clipPath>
		<path clip-path="url(#SVGID_2_)" d="M26.396,20.24h0.651v5.43h-0.691c-0.16-1.499-0.704-2.673-1.631-3.519
			c-0.926-0.837-2.098-1.259-3.509-1.259c-1.248,0-2.251,0.314-3.013,0.948c-0.77,0.629-1.148,1.474-1.148,2.528
			c0,0.97,0.318,1.864,0.945,2.662c0.635,0.806,2.006,1.837,4.11,3.1c2.444,1.462,4.095,2.742,4.937,3.831
			c0.838,1.099,1.258,2.342,1.258,3.755c0,1.815-0.639,3.368-1.926,4.656c-1.293,1.291-2.842,1.938-4.657,1.938
			c-1.046,0-2.388-0.293-4.017-0.871c-0.67-0.235-1.105-0.353-1.286-0.353c-0.378,0-0.677,0.291-0.884,0.886h-0.693v-6.256h0.693
			c0.015,1.721,0.576,3.106,1.686,4.143c1.109,1.041,2.405,1.562,3.891,1.562c1.404,0,2.533-0.378,3.381-1.132
			c0.844-0.748,1.271-1.749,1.271-2.998c0-0.94-0.35-1.834-1.047-2.69c-0.699-0.855-2.152-1.957-4.359-3.313
			c-1.811-1.113-3.016-1.991-3.624-2.64c-0.603-0.644-1.048-1.349-1.335-2.125c-0.294-0.766-0.436-1.614-0.436-2.536
			c0-1.779,0.587-3.219,1.746-4.325c1.172-1.106,2.683-1.662,4.55-1.662c1.028,0,2.147,0.208,3.36,0.617
			c0.563,0.186,0.956,0.275,1.184,0.275c0.182,0,0.311-0.043,0.37-0.116C26.244,20.696,26.311,20.516,26.396,20.24"/>
	</g>
	<g>
		<defs>
			<rect id="SVGID_3_" x="-18.73" y="-8.756" width="634" height="122.142"/>
		</defs>
		<clipPath id="SVGID_4_">
			<use xlink:href="#SVGID_3_"  overflow="visible"/>
		</clipPath>
		<path clip-path="url(#SVGID_4_)" d="M35.145,29.026v2.409c0.906-0.885,1.73-1.5,2.479-1.869c0.742-0.361,1.575-0.54,2.502-0.54
			c1.861,0,3.4,0.707,4.625,2.125c1.226,1.414,1.845,3.192,1.845,5.334c0,2.209-0.677,4.05-2.028,5.511
			c-1.354,1.459-3.053,2.194-5.097,2.194c-1.41,0-2.852-0.569-4.325-1.698v9.417c0,0.976,0.164,1.617,0.5,1.92
			c0.333,0.311,0.965,0.469,1.887,0.469v0.671h-7.664v-0.671c0.99,0,1.653-0.141,1.994-0.417c0.344-0.274,0.514-0.806,0.514-1.58
			V32.364c0-0.959-0.141-1.577-0.438-1.84c-0.282-0.257-0.976-0.393-2.069-0.393v-0.673l4.582-0.432H35.145z M35.145,32.501v8.963
			c1.115,1.186,2.434,1.776,3.952,1.776c1.28,0,2.354-0.597,3.22-1.796c0.857-1.196,1.294-2.68,1.294-4.463
			c0-1.918-0.437-3.504-1.294-4.755c-0.865-1.25-1.965-1.876-3.295-1.876C37.676,30.349,36.381,31.066,35.145,32.501"/>
	</g>
	<g>
		<defs>
			<rect id="SVGID_5_" x="-18.73" y="-8.756" width="634" height="122.142"/>
		</defs>
		<clipPath id="SVGID_6_">
			<use xlink:href="#SVGID_5_"  overflow="visible"/>
		</clipPath>
		<path clip-path="url(#SVGID_6_)" d="M53.367,29.028h0.69v12.056c0,0.791,0.172,1.321,0.512,1.584
			c0.337,0.263,0.967,0.396,1.874,0.396v0.672h-7.838v-0.672c1.142,0,1.883-0.129,2.214-0.391c0.328-0.251,0.493-0.783,0.493-1.589
			v-8.812c0-0.872-0.153-1.445-0.46-1.728c-0.298-0.272-1.046-0.416-2.247-0.416V29.46L53.367,29.028z M52.73,21.621
			c0.487,0,0.898,0.167,1.236,0.504c0.336,0.337,0.501,0.748,0.501,1.234c0,0.49-0.165,0.906-0.508,1.254
			c-0.345,0.349-0.75,0.523-1.229,0.523c-0.485,0-0.908-0.174-1.257-0.523c-0.359-0.348-0.537-0.764-0.537-1.254
			c0-0.486,0.174-0.896,0.523-1.234C51.807,21.788,52.232,21.621,52.73,21.621"/>
	</g>
	<g>
		<defs>
			<rect id="SVGID_7_" x="-18.73" y="-8.756" width="634" height="122.142"/>
		</defs>
		<clipPath id="SVGID_8_">
			<use xlink:href="#SVGID_7_"  overflow="visible"/>
		</clipPath>
		<path clip-path="url(#SVGID_8_)" d="M62.841,29.026v2.866c1.674-1.91,3.396-2.866,5.174-2.866c1.38,0,2.534,0.47,3.457,1.415
			c0.92,0.942,1.381,2.182,1.381,3.723v6.468c0,0.986,0.16,1.639,0.492,1.956c0.323,0.318,0.973,0.474,1.936,0.474v0.674h-7.644
			v-0.674c0.951,0,1.596-0.121,1.945-0.367c0.349-0.236,0.526-0.709,0.526-1.411v-7.492c0-1.006-0.303-1.803-0.902-2.395
			c-0.594-0.594-1.364-0.887-2.299-0.887c-1.343,0-2.693,0.933-4.066,2.803v7.004c0,1.186,0.153,1.941,0.461,2.264
			c0.303,0.324,0.946,0.482,1.927,0.482v0.674h-7.543v-0.674c1.098,0,1.769-0.17,2.016-0.522c0.252-0.351,0.377-1.093,0.377-2.228
			v-8.079c0-0.862-0.146-1.427-0.454-1.696c-0.307-0.271-0.954-0.406-1.938-0.406v-0.673l4.462-0.432H62.841z"/>
	</g>
	<g>
		<defs>
			<rect id="SVGID_9_" x="-18.73" y="-8.756" width="634" height="122.142"/>
		</defs>
		<clipPath id="SVGID_10_">
			<use xlink:href="#SVGID_9_"  overflow="visible"/>
		</clipPath>
		<path clip-path="url(#SVGID_10_)" d="M90.9,40.065v1.041c-0.868,1.109-1.759,1.896-2.657,2.375
			c-0.903,0.47-1.986,0.707-3.246,0.707c-2.244,0-4.093-0.703-5.541-2.104c-1.452-1.404-2.181-3.179-2.181-5.339
			c0-2.177,0.694-4.003,2.086-5.485c1.382-1.489,3.085-2.232,5.102-2.232c1.656,0,3.105,0.556,4.344,1.676
			c1.236,1.121,1.853,2.457,1.853,4.007v0.296H80.137v0.197c0,1.583,0.245,2.954,0.723,4.119c0.483,1.165,1.18,2.073,2.102,2.731
			c0.919,0.659,1.881,0.987,2.877,0.987c0.944,0,1.739-0.192,2.404-0.583C88.907,42.073,89.795,41.271,90.9,40.065 M80.137,34.317
			h7.801V34.04c0-1.275-0.37-2.291-1.097-3.04c-0.731-0.747-1.642-1.125-2.736-1.125c-1.156,0-2.086,0.397-2.792,1.187
			C80.606,31.849,80.218,32.935,80.137,34.317"/>
	</g>
	<g>
		<defs>
			<rect id="SVGID_11_" x="-18.73" y="-8.756" width="634" height="122.142"/>
		</defs>
		<clipPath id="SVGID_12_">
			<use xlink:href="#SVGID_11_"  overflow="visible"/>
		</clipPath>
		<path clip-path="url(#SVGID_12_)" d="M100.767,43.063h0.379v0.666h-7.995v-0.666h0.731c0.737,0,1.23-0.188,1.502-0.576
			c0.263-0.381,0.389-1.09,0.389-2.131V21.462c0-0.737-0.144-1.249-0.435-1.526c-0.283-0.282-0.787-0.424-1.498-0.424h-0.926v-0.669
			l4.938-0.496h0.668v22.702c0,0.779,0.159,1.304,0.476,1.589C99.313,42.92,99.902,43.063,100.767,43.063"/>
	</g>
	<g>
		<defs>
			<rect id="SVGID_13_" x="-18.73" y="-8.756" width="634" height="122.142"/>
		</defs>
		<clipPath id="SVGID_14_">
			<use xlink:href="#SVGID_13_"  overflow="visible"/>
		</clipPath>
		<path clip-path="url(#SVGID_14_)" d="M110.481,43.063h0.381v0.666h-8v-0.666h0.732c0.737,0,1.236-0.188,1.502-0.576
			c0.263-0.381,0.394-1.09,0.394-2.131V21.462c0-0.737-0.146-1.249-0.436-1.526c-0.285-0.282-0.784-0.424-1.498-0.424h-0.927v-0.669
			l4.936-0.496h0.67v22.702c0,0.779,0.157,1.304,0.475,1.589C109.03,42.92,109.616,43.063,110.481,43.063"/>
	</g>
	<g>
		<defs>
			<rect id="SVGID_15_" x="-18.73" y="-8.756" width="634" height="122.142"/>
		</defs>
		<clipPath id="SVGID_16_">
			<use xlink:href="#SVGID_15_"  overflow="visible"/>
		</clipPath>
		<path clip-path="url(#SVGID_16_)" d="M116.976,29.028h0.695v12.056c0,0.791,0.17,1.321,0.512,1.584
			c0.343,0.263,0.967,0.396,1.878,0.396v0.672h-7.838v-0.672c1.145,0,1.883-0.129,2.21-0.391c0.33-0.251,0.496-0.783,0.496-1.589
			v-8.812c0-0.872-0.149-1.445-0.461-1.728c-0.3-0.272-1.05-0.416-2.245-0.416V29.46L116.976,29.028z M116.348,21.621
			c0.488,0,0.898,0.167,1.234,0.504c0.334,0.337,0.498,0.748,0.498,1.234c0,0.49-0.164,0.906-0.51,1.254
			c-0.341,0.349-0.747,0.523-1.223,0.523c-0.487,0-0.908-0.174-1.261-0.523c-0.357-0.348-0.535-0.764-0.535-1.254
			c0-0.486,0.172-0.896,0.523-1.234C115.423,21.788,115.85,21.621,116.348,21.621"/>
	</g>
	<g>
		<defs>
			<rect id="SVGID_17_" x="-18.73" y="-8.756" width="634" height="122.142"/>
		</defs>
		<clipPath id="SVGID_18_">
			<use xlink:href="#SVGID_17_"  overflow="visible"/>
		</clipPath>
		<path clip-path="url(#SVGID_18_)" d="M204.135,43.735v-0.672c1.014,0,1.703-0.27,2.072-0.819c0.37-0.546,0.549-1.495,0.549-2.854
			V24.938c0-1.391-0.179-2.356-0.544-2.892c-0.358-0.535-1.053-0.798-2.077-0.798V20.58h8.287v0.669
			c-0.969,0-1.643,0.275-2.023,0.826c-0.373,0.555-0.563,1.512-0.563,2.864v6.991l7.572-7.44c0.801-0.806,1.198-1.452,1.198-1.935
			c0-0.674-0.487-1.111-1.461-1.306V20.58h8.744v0.669h-1.147c-0.692,0-1.495,0.233-2.396,0.7c-0.9,0.467-1.724,1.082-2.477,1.846
			l-7.206,7.121l9.575,9.701c0.949,0.978,1.678,1.62,2.191,1.909c0.512,0.293,1.233,0.471,2.152,0.537v0.672h-5.512l-11.236-11.352
			v6.999c0,1.361,0.182,2.31,0.547,2.86c0.362,0.551,1.043,0.82,2.041,0.82v0.67h-8.287V43.735z"/>
	</g>
	<g>
		<defs>
			<rect id="SVGID_19_" x="-18.73" y="-8.756" width="634" height="122.142"/>
		</defs>
		<clipPath id="SVGID_20_">
			<use xlink:href="#SVGID_19_"  overflow="visible"/>
		</clipPath>
		<path clip-path="url(#SVGID_20_)" d="M232.518,29.028h0.693v12.056c0,0.791,0.165,1.321,0.512,1.584
			c0.34,0.263,0.965,0.396,1.877,0.396v0.672h-7.843v-0.672c1.146,0,1.886-0.129,2.22-0.391c0.325-0.251,0.488-0.783,0.488-1.589
			v-8.812c0-0.872-0.15-1.445-0.456-1.728c-0.3-0.272-1.048-0.416-2.252-0.416V29.46L232.518,29.028z M231.885,21.621
			c0.486,0,0.902,0.167,1.238,0.504c0.332,0.337,0.499,0.748,0.499,1.234c0,0.49-0.167,0.906-0.511,1.254
			c-0.346,0.349-0.752,0.523-1.228,0.523c-0.485,0-0.905-0.174-1.262-0.523c-0.356-0.348-0.536-0.764-0.536-1.254
			c0-0.486,0.176-0.896,0.523-1.234C230.963,21.788,231.383,21.621,231.885,21.621"/>
	</g>
	<g>
		<defs>
			<rect id="SVGID_21_" x="-18.73" y="-8.756" width="634" height="122.142"/>
		</defs>
		<clipPath id="SVGID_22_">
			<use xlink:href="#SVGID_21_"  overflow="visible"/>
		</clipPath>
		<path clip-path="url(#SVGID_22_)" d="M244.75,43.063h0.383v0.666h-8.002v-0.666h0.73c0.736,0,1.238-0.188,1.505-0.576
			c0.257-0.381,0.39-1.09,0.39-2.131V21.462c0-0.737-0.146-1.249-0.431-1.526c-0.291-0.282-0.789-0.424-1.505-0.424h-0.926v-0.669
			l4.938-0.496h0.669v22.702c0,0.779,0.158,1.304,0.482,1.589C243.296,42.92,243.885,43.063,244.75,43.063"/>
	</g>
	<g>
		<defs>
			<rect id="SVGID_23_" x="-18.73" y="-8.756" width="634" height="122.142"/>
		</defs>
		<clipPath id="SVGID_24_">
			<use xlink:href="#SVGID_23_"  overflow="visible"/>
		</clipPath>
		<path clip-path="url(#SVGID_24_)" d="M260.186,29.026v5.051h-0.689c-0.299-1.314-0.881-2.351-1.732-3.12
			c-0.857-0.76-1.877-1.142-3.06-1.142c-1.427,0-2.584,0.555-3.474,1.659c-0.896,1.107-1.347,2.539-1.347,4.306
			c0,1.945,0.528,3.631,1.587,5.049c1.061,1.421,2.321,2.137,3.78,2.137c0.976,0,1.938-0.263,2.888-0.793
			c0.963-0.521,1.78-1.255,2.463-2.189v1.043c-1.551,2.108-3.656,3.166-6.314,3.166c-2.122,0-3.85-0.674-5.184-2.019
			c-1.336-1.344-2.006-3.083-2.006-5.231c0-2.197,0.725-4.062,2.164-5.604c1.438-1.543,3.182-2.312,5.221-2.312
			c0.91,0,1.925,0.185,3.041,0.557c0.488,0.149,0.826,0.232,1.006,0.232c0.416,0,0.734-0.263,0.967-0.789L260.186,29.026
			L260.186,29.026z"/>
	</g>
	<g>
		<defs>
			<rect id="SVGID_25_" x="-18.73" y="-8.756" width="634" height="122.142"/>
		</defs>
		<clipPath id="SVGID_26_">
			<use xlink:href="#SVGID_25_"  overflow="visible"/>
		</clipPath>
		<path clip-path="url(#SVGID_26_)" d="M278.088,36.629c0,2.156-0.748,3.96-2.238,5.397c-1.49,1.441-3.36,2.162-5.596,2.162
			c-2.243,0-4.107-0.721-5.604-2.162c-1.496-1.438-2.234-3.241-2.234-5.397c0-2.188,0.739-4.003,2.223-5.439
			c1.49-1.446,3.359-2.165,5.615-2.165c2.25,0,4.112,0.719,5.604,2.165C277.34,32.626,278.088,34.44,278.088,36.629 M275.105,36.638
			c0-2.046-0.433-3.696-1.295-4.947c-0.877-1.246-2.062-1.876-3.557-1.876c-1.504,0-2.684,0.613-3.557,1.843
			c-0.867,1.223-1.303,2.885-1.303,4.979c0,2.057,0.432,3.699,1.289,4.924c0.865,1.224,2.058,1.84,3.569,1.84
			c1.507,0,2.696-0.623,3.562-1.865C274.677,40.302,275.105,38.667,275.105,36.638"/>
	</g>
	<g>
		<defs>
			<rect id="SVGID_27_" x="-18.73" y="-8.756" width="634" height="122.142"/>
		</defs>
		<clipPath id="SVGID_28_">
			<use xlink:href="#SVGID_27_"  overflow="visible"/>
		</clipPath>
		<path clip-path="url(#SVGID_28_)" d="M287.816,43.063h0.377v0.666h-8v-0.666h0.738c0.729,0,1.229-0.188,1.5-0.576
			c0.26-0.381,0.387-1.09,0.387-2.131V21.462c0-0.737-0.145-1.249-0.435-1.526c-0.284-0.282-0.784-0.424-1.495-0.424h-0.927v-0.669
			l4.938-0.496h0.668v22.702c0,0.779,0.158,1.304,0.475,1.589C286.359,42.92,286.948,43.063,287.816,43.063"/>
	</g>
	<g>
		<defs>
			<rect id="SVGID_29_" x="-18.73" y="-8.756" width="634" height="122.142"/>
		</defs>
		<clipPath id="SVGID_30_">
			<use xlink:href="#SVGID_29_"  overflow="visible"/>
		</clipPath>
		<path clip-path="url(#SVGID_30_)" d="M297.283,43.063h0.383v0.666h-7.999v-0.666h0.731c0.736,0,1.234-0.188,1.502-0.576
			c0.261-0.381,0.392-1.09,0.392-2.131V21.462c0-0.737-0.144-1.249-0.435-1.526c-0.291-0.282-0.783-0.424-1.504-0.424h-0.922v-0.669
			l4.936-0.496h0.673v22.702c0,0.779,0.155,1.304,0.478,1.589C295.834,42.92,296.422,43.063,297.283,43.063"/>
	</g>
	<g>
		<defs>
			<rect id="SVGID_31_" x="-18.73" y="-8.756" width="634" height="122.142"/>
		</defs>
		<clipPath id="SVGID_32_">
			<use xlink:href="#SVGID_31_"  overflow="visible"/>
		</clipPath>
		<path clip-path="url(#SVGID_32_)" d="M303.542,29.028h0.69v12.056c0,0.791,0.17,1.321,0.511,1.584
			c0.345,0.263,0.972,0.396,1.878,0.396v0.672h-7.834v-0.672c1.142,0,1.878-0.129,2.21-0.391c0.327-0.251,0.489-0.783,0.489-1.589
			v-8.812c0-0.872-0.149-1.445-0.451-1.728c-0.305-0.272-1.053-0.416-2.248-0.416V29.46L303.542,29.028z M302.911,21.621
			c0.485,0,0.897,0.167,1.235,0.504c0.33,0.337,0.506,0.748,0.506,1.234c0,0.49-0.176,0.906-0.52,1.254
			c-0.341,0.349-0.75,0.523-1.223,0.523c-0.485,0-0.914-0.174-1.268-0.523c-0.35-0.348-0.531-0.764-0.531-1.254
			c0-0.486,0.18-0.896,0.523-1.234C301.982,21.788,302.41,21.621,302.911,21.621"/>
	</g>
	<g>
		<defs>
			<rect id="SVGID_33_" x="-18.73" y="-8.756" width="634" height="122.142"/>
		</defs>
		<clipPath id="SVGID_34_">
			<use xlink:href="#SVGID_33_"  overflow="visible"/>
		</clipPath>
		<path clip-path="url(#SVGID_34_)" d="M312.772,29.026v2.866c1.678-1.91,3.4-2.866,5.176-2.866c1.382,0,2.534,0.47,3.452,1.415
			c0.92,0.942,1.382,2.182,1.382,3.723v6.468c0,0.986,0.172,1.639,0.499,1.956c0.327,0.318,0.973,0.474,1.931,0.474v0.674h-7.638
			v-0.674c0.946,0,1.595-0.121,1.942-0.367c0.35-0.236,0.524-0.709,0.524-1.411v-7.492c0-1.006-0.298-1.803-0.897-2.395
			c-0.598-0.594-1.365-0.887-2.301-0.887c-1.346,0-2.697,0.933-4.071,2.803v7.004c0,1.186,0.157,1.941,0.461,2.264
			c0.31,0.324,0.952,0.482,1.936,0.482v0.674h-7.546v-0.674c1.096,0,1.77-0.17,2.016-0.522c0.252-0.351,0.376-1.093,0.376-2.228
			v-8.079c0-0.862-0.151-1.427-0.456-1.696c-0.302-0.271-0.945-0.406-1.936-0.406v-0.673l4.462-0.432H312.772z"/>
	</g>
	<g>
		<defs>
			<rect id="SVGID_35_" x="-18.73" y="-8.756" width="634" height="122.142"/>
		</defs>
		<clipPath id="SVGID_36_">
			<use xlink:href="#SVGID_35_"  overflow="visible"/>
		</clipPath>
		<path clip-path="url(#SVGID_36_)" d="M157.988,5.636v11.453l-1.234-0.104c-0.312-2.38-0.886-3.305-1.706-4.718
			c-0.82-1.412-1.738-2.437-3.259-3.265c-1.512-0.83-3.09-1.243-4.717-1.243c-1.837,0-3.357,0.556-4.555,1.677
			c-1.205,1.126-1.802,2.398-1.802,3.832c0,1.094,0.379,2.092,1.142,2.998c1.089,1.321,3.697,3.085,7.812,5.295
			c3.357,1.804,5.646,3.179,6.876,4.145c1.227,0.968,2.175,2.102,2.836,3.409c0.665,1.308,0.997,2.675,0.997,4.104
			c0,2.726-1.06,5.07-3.169,7.038c-2.109,1.969-4.827,2.954-8.149,2.954c-1.042,0-2.023-0.081-2.94-0.237
			c-0.55-0.088-1.683-0.414-3.401-0.969c-1.724-0.553-2.813-0.836-3.277-0.836c-0.441,0-0.787,0.133-1.043,0.4
			c-0.261,0.262-0.453,0.812-0.568,1.643h-0.986V30.887h0.986c0.452,2.578,1.076,4.51,1.852,5.792
			c0.778,1.28,1.96,2.344,3.561,3.192c1.603,0.851,3.355,1.271,5.264,1.271c2.208,0,3.952-0.582,5.234-1.748
			c1.276-1.166,1.921-2.545,1.921-4.135c0-0.884-0.244-1.775-0.728-2.673c-0.493-0.906-1.242-1.741-2.267-2.516
			c-0.694-0.531-2.571-1.659-5.646-3.383c-3.073-1.722-5.263-3.093-6.555-4.121c-1.304-1.021-2.284-2.156-2.957-3.392
			c-0.672-1.235-1.009-2.594-1.009-4.081c0-2.582,0.992-4.8,2.966-6.66c1.981-1.866,4.499-2.798,7.555-2.798
			c1.91,0,3.929,0.467,6.069,1.403c0.987,0.442,1.686,0.66,2.092,0.66c0.462,0,0.834-0.135,1.126-0.407
			c0.289-0.273,0.524-0.829,0.701-1.656L157.988,5.636L157.988,5.636z"/>
	</g>
	<g>
		<defs>
			<rect id="SVGID_37_" x="-18.73" y="-8.756" width="634" height="122.142"/>
		</defs>
		<clipPath id="SVGID_38_">
			<use xlink:href="#SVGID_37_"  overflow="visible"/>
		</clipPath>
		<path clip-path="url(#SVGID_38_)" d="M169.43,32.147l13.253,13.172c2.174,2.172,4.021,3.652,5.562,4.439
			c1.537,0.785,3.068,1.229,4.607,1.331v0.985H175.77V51.09c1.016,0,1.756-0.168,2.205-0.512c0.457-0.345,0.678-0.731,0.678-1.152
			c0-0.425-0.079-0.799-0.25-1.142c-0.166-0.334-0.721-0.96-1.655-1.877l-12.404-12.274v11.582c0,1.82,0.115,3.024,0.349,3.603
			c0.176,0.447,0.543,0.826,1.11,1.145c0.758,0.421,1.564,0.628,2.406,0.628h1.223v0.985h-15.314V51.09h1.271
			c1.486,0,2.562-0.43,3.23-1.292c0.425-0.568,0.64-1.927,0.64-4.083v-23.21c0-1.82-0.085-3.348-0.317-3.949
			c-0.193-0.501-0.493-0.915-0.778-1.07c-0.536-0.291-1.506-0.228-1.506-0.228v-1.112h12.774v0.976h-1.223
			c-0.825,0-1.63,0.206-2.406,0.611c-0.546,0.287-0.928,0.711-1.142,1.272c-0.207,0.568-0.317,1.732-0.317,3.5V33.5
			c0.356-0.332,1.562-1.452,3.634-3.364c5.242-4.806,8.417-8.013,9.513-9.62c0.473-0.708,0.715-1.324,0.715-1.854
			c0-0.404-0.188-0.767-0.559-1.069c-0.375-0.311-0.998-0.47-1.875-0.47h-0.826v-0.976h13.195v0.976
			c-0.781,0.02-1.483,0.128-2.119,0.322c-0.64,0.193-1.416,0.572-2.33,1.124c-0.926,0.556-2.056,1.458-3.397,2.694
			c-0.384,0.35-2.183,2.162-5.376,5.433L169.43,32.147z"/>
	</g>
</g>
</svg>
