<?xml version="1.0" encoding="utf-8"?>
<!-- Generator: Adobe Illustrator 14.0.0, SVG Export Plug-In . SVG Version: 6.00 Build 43363)  -->
<!DOCTYPE svg PUBLIC "-//W3C//DTD SVG 1.1//EN" "http://www.w3.org/Graphics/SVG/1.1/DTD/svg11.dtd">
<svg version="1.1" id="Layer_1" xmlns="http://www.w3.org/2000/svg" xmlns:xlink="http://www.w3.org/1999/xlink" x="0px" y="0px"
	 width="160px" height="30.824px" viewBox="0 0 160 30.824" enable-background="new 0 0 160 30.824" xml:space="preserve">
<g>
	<defs>
		<rect id="SVGID_1_" x="-7.597" y="-3.729" width="298.111" height="57.432"/>
	</defs>
	<clipPath id="SVGID_2_">
		<use xlink:href="#SVGID_1_"  overflow="visible"/>
	</clipPath>
	<path clip-path="url(#SVGID_2_)" d="M13.621,9.906h0.307v2.553h-0.325c-0.075-0.705-0.331-1.257-0.766-1.654
		c-0.437-0.394-0.987-0.592-1.65-0.592c-0.587,0-1.059,0.147-1.417,0.445c-0.362,0.296-0.54,0.693-0.54,1.189
		c0,0.457,0.149,0.876,0.444,1.251c0.299,0.379,0.944,0.864,1.933,1.458c1.149,0.688,1.925,1.289,2.321,1.801
		c0.395,0.517,0.592,1.102,0.592,1.766c0,0.854-0.302,1.584-0.907,2.189c-0.607,0.606-1.336,0.911-2.19,0.911
		c-0.491,0-1.123-0.139-1.888-0.41c-0.315-0.11-0.52-0.165-0.605-0.165c-0.178,0-0.318,0.137-0.416,0.416H8.189v-2.941h0.325
		c0.008,0.81,0.271,1.461,0.793,1.948c0.521,0.489,1.131,0.734,1.83,0.734c0.66,0,1.191-0.178,1.589-0.532
		c0.397-0.352,0.598-0.822,0.598-1.409c0-0.442-0.164-0.862-0.491-1.266c-0.329-0.402-1.012-0.92-2.051-1.558
		c-0.851-0.523-1.417-0.937-1.704-1.241c-0.283-0.303-0.492-0.635-0.627-0.999c-0.139-0.36-0.205-0.759-0.205-1.192
		c0-0.836,0.276-1.514,0.821-2.034c0.55-0.52,1.261-0.781,2.139-0.781c0.484,0,1.01,0.098,1.58,0.29
		c0.264,0.087,0.45,0.129,0.557,0.129c0.085,0,0.146-0.021,0.174-0.055C13.55,10.121,13.583,10.036,13.621,9.906"/>
	<path clip-path="url(#SVGID_2_)" d="M17.734,14.037v1.133c0.427-0.416,0.814-0.706,1.167-0.879c0.349-0.17,0.741-0.254,1.177-0.254
		c0.875,0,1.599,0.332,2.174,0.999c0.576,0.665,0.868,1.501,0.868,2.509c0,1.039-0.318,1.904-0.954,2.591
		c-0.635,0.687-1.435,1.032-2.395,1.032c-0.665,0-1.342-0.268-2.036-0.799v4.428c0,0.459,0.078,0.761,0.237,0.903
		c0.157,0.146,0.454,0.221,0.887,0.221v0.315h-3.604v-0.315c0.464,0,0.777-0.066,0.937-0.196c0.162-0.129,0.241-0.379,0.241-0.743
		v-9.375c0-0.451-0.065-0.741-0.206-0.865c-0.133-0.121-0.458-0.185-0.972-0.185V14.24l2.154-0.203H17.734z M17.734,15.671v4.215
		c0.526,0.557,1.146,0.835,1.86,0.835c0.602,0,1.106-0.28,1.513-0.845c0.404-0.562,0.609-1.26,0.609-2.099
		c0-0.902-0.205-1.647-0.609-2.236c-0.406-0.587-0.924-0.882-1.549-0.882C18.926,14.659,18.315,14.996,17.734,15.671"/>
	<path clip-path="url(#SVGID_2_)" d="M26.303,14.038h0.325v5.669c0,0.372,0.081,0.621,0.241,0.745
		c0.159,0.123,0.455,0.186,0.881,0.186v0.316h-3.685v-0.316c0.537,0,0.885-0.061,1.041-0.184c0.154-0.118,0.231-0.368,0.231-0.747
		v-4.144c0-0.41-0.071-0.68-0.216-0.812c-0.141-0.128-0.491-0.195-1.056-0.195v-0.314L26.303,14.038z M26.004,10.555
		c0.229,0,0.422,0.079,0.581,0.237c0.157,0.159,0.235,0.352,0.235,0.58c0,0.231-0.079,0.426-0.239,0.59
		c-0.162,0.164-0.354,0.246-0.578,0.246c-0.228,0-0.427-0.082-0.592-0.246c-0.168-0.164-0.251-0.359-0.251-0.59
		c0-0.228,0.082-0.421,0.246-0.58C25.57,10.634,25.769,10.555,26.004,10.555"/>
	<path clip-path="url(#SVGID_2_)" d="M30.758,14.037v1.348c0.787-0.898,1.596-1.348,2.432-1.348c0.649,0,1.192,0.221,1.625,0.665
		c0.433,0.443,0.649,1.026,0.649,1.751v3.041c0,0.464,0.076,0.771,0.232,0.92c0.153,0.149,0.458,0.223,0.911,0.223v0.316h-3.593
		v-0.316c0.447,0,0.75-0.057,0.913-0.173c0.164-0.111,0.248-0.334,0.248-0.664v-3.522c0-0.473-0.142-0.848-0.424-1.126
		c-0.279-0.279-0.642-0.417-1.081-0.417c-0.631,0-1.266,0.438-1.912,1.317v3.293c0,0.558,0.071,0.913,0.216,1.064
		c0.143,0.152,0.446,0.228,0.908,0.228v0.316h-3.547v-0.316c0.516,0,0.831-0.08,0.948-0.246c0.119-0.164,0.177-0.514,0.177-1.047
		v-3.799c0-0.405-0.069-0.671-0.213-0.798c-0.144-0.127-0.448-0.19-0.911-0.19V14.24l2.098-0.203H30.758z"/>
	<path clip-path="url(#SVGID_2_)" d="M43.951,19.228v0.49c-0.408,0.521-0.826,0.892-1.249,1.116
		c-0.424,0.221-0.934,0.333-1.526,0.333c-1.054,0-1.923-0.33-2.605-0.989c-0.683-0.66-1.026-1.495-1.026-2.511
		c0-1.023,0.326-1.882,0.98-2.579c0.65-0.7,1.451-1.05,2.398-1.05c0.78,0,1.462,0.262,2.043,0.788
		c0.582,0.527,0.871,1.155,0.871,1.885v0.139H38.89v0.093c0,0.744,0.115,1.389,0.34,1.937c0.226,0.548,0.554,0.976,0.988,1.285
		c0.432,0.31,0.885,0.464,1.354,0.464c0.443,0,0.816-0.091,1.13-0.273C43.015,20.172,43.431,19.794,43.951,19.228 M38.89,16.525
		h3.669v-0.131c0-0.6-0.174-1.077-0.517-1.43c-0.342-0.351-0.772-0.528-1.286-0.528c-0.544,0-0.981,0.187-1.314,0.558
		C39.112,15.364,38.929,15.875,38.89,16.525"/>
	<path clip-path="url(#SVGID_2_)" d="M48.592,20.638h0.177v0.313H45.01v-0.313h0.344c0.346,0,0.579-0.089,0.706-0.271
		c0.123-0.179,0.183-0.513,0.183-1.002V10.48c0-0.346-0.067-0.587-0.204-0.718c-0.134-0.133-0.37-0.2-0.705-0.2h-0.436V9.249
		l2.322-0.233h0.314V19.69c0,0.366,0.075,0.613,0.223,0.747C47.907,20.57,48.185,20.638,48.592,20.638"/>
	<path clip-path="url(#SVGID_2_)" d="M53.159,20.638h0.178v0.313h-3.761v-0.313h0.345c0.346,0,0.581-0.089,0.706-0.271
		c0.123-0.179,0.185-0.513,0.185-1.002V10.48c0-0.346-0.069-0.587-0.204-0.718c-0.135-0.133-0.37-0.2-0.706-0.2h-0.436V9.249
		l2.321-0.233h0.314V19.69c0,0.366,0.075,0.613,0.224,0.747C52.477,20.57,52.752,20.638,53.159,20.638"/>
	<path clip-path="url(#SVGID_2_)" d="M56.213,14.038h0.326v5.669c0,0.372,0.08,0.621,0.241,0.745
		c0.161,0.123,0.455,0.186,0.883,0.186v0.316h-3.686v-0.316c0.538,0,0.885-0.061,1.041-0.184c0.154-0.118,0.232-0.368,0.232-0.747
		v-4.144c0-0.41-0.071-0.68-0.216-0.812c-0.142-0.128-0.494-0.195-1.057-0.195v-0.314L56.213,14.038z M55.917,10.555
		c0.229,0,0.422,0.079,0.581,0.237c0.156,0.159,0.234,0.352,0.234,0.58c0,0.231-0.079,0.426-0.24,0.59
		c-0.16,0.164-0.353,0.246-0.575,0.246c-0.229,0-0.427-0.082-0.592-0.246c-0.169-0.164-0.252-0.359-0.252-0.59
		c0-0.228,0.082-0.421,0.247-0.58C55.482,10.634,55.683,10.555,55.917,10.555"/>
	<path clip-path="url(#SVGID_2_)" d="M97.195,20.953v-0.315c0.477,0,0.801-0.127,0.975-0.386c0.174-0.257,0.258-0.703,0.258-1.343
		v-6.794c0-0.654-0.084-1.108-0.256-1.36c-0.168-0.251-0.494-0.375-0.977-0.375v-0.315h3.896v0.315
		c-0.455,0-0.771,0.129-0.951,0.388c-0.176,0.261-0.266,0.71-0.266,1.347v3.287l3.561-3.499c0.377-0.379,0.564-0.683,0.564-0.91
		c0-0.317-0.23-0.522-0.688-0.614v-0.315h4.111v0.315h-0.539c-0.326,0-0.703,0.109-1.127,0.329c-0.424,0.22-0.811,0.509-1.164,0.868
		l-3.389,3.349l4.502,4.562c0.447,0.46,0.789,0.762,1.031,0.897c0.24,0.138,0.58,0.222,1.012,0.253v0.315h-2.592l-5.283-5.337v3.291
		c0,0.64,0.086,1.086,0.258,1.345c0.17,0.259,0.49,0.386,0.959,0.386v0.315H97.195z"/>
	<path clip-path="url(#SVGID_2_)" d="M110.541,14.038h0.326v5.669c0,0.372,0.078,0.621,0.24,0.745
		c0.16,0.123,0.453,0.186,0.883,0.186v0.316h-3.688v-0.316c0.539,0,0.887-0.061,1.043-0.184c0.154-0.118,0.23-0.368,0.23-0.747
		v-4.144c0-0.41-0.07-0.68-0.215-0.812c-0.141-0.128-0.492-0.195-1.059-0.195v-0.314L110.541,14.038z M110.244,10.555
		c0.229,0,0.424,0.079,0.582,0.237c0.156,0.159,0.234,0.352,0.234,0.58c0,0.231-0.078,0.426-0.24,0.59
		c-0.162,0.164-0.354,0.246-0.576,0.246c-0.229,0-0.426-0.082-0.594-0.246c-0.168-0.164-0.252-0.359-0.252-0.59
		c0-0.228,0.082-0.421,0.246-0.58C109.811,10.634,110.008,10.555,110.244,10.555"/>
	<path clip-path="url(#SVGID_2_)" d="M116.293,20.638h0.18v0.313h-3.762v-0.313h0.344c0.346,0,0.582-0.089,0.707-0.271
		c0.121-0.179,0.184-0.513,0.184-1.002V10.48c0-0.346-0.068-0.587-0.203-0.718c-0.137-0.133-0.371-0.2-0.707-0.2H112.6V9.249
		l2.322-0.233h0.314V19.69c0,0.366,0.074,0.613,0.227,0.747C115.609,20.57,115.887,20.638,116.293,20.638"/>
	<path clip-path="url(#SVGID_2_)" d="M123.551,14.037v2.375h-0.324c-0.141-0.618-0.414-1.105-0.814-1.467
		c-0.404-0.357-0.883-0.537-1.439-0.537c-0.67,0-1.215,0.261-1.633,0.78c-0.422,0.521-0.633,1.193-0.633,2.024
		c0,0.915,0.248,1.707,0.746,2.374c0.498,0.668,1.092,1.005,1.777,1.005c0.459,0,0.912-0.124,1.357-0.373
		c0.453-0.245,0.838-0.59,1.158-1.029v0.49c-0.729,0.991-1.719,1.488-2.969,1.488c-0.998,0-1.811-0.317-2.438-0.949
		c-0.629-0.632-0.943-1.449-0.943-2.46c0-1.033,0.34-1.91,1.018-2.635c0.676-0.726,1.496-1.087,2.455-1.087
		c0.428,0,0.904,0.087,1.43,0.262c0.23,0.07,0.389,0.109,0.473,0.109c0.195,0,0.346-0.124,0.455-0.371H123.551z"/>
	<path clip-path="url(#SVGID_2_)" d="M131.969,17.612c0,1.014-0.352,1.862-1.053,2.538c-0.701,0.678-1.58,1.017-2.631,1.017
		c-1.055,0-1.932-0.339-2.635-1.017c-0.703-0.676-1.051-1.524-1.051-2.538c0-1.029,0.348-1.883,1.045-2.558
		c0.701-0.68,1.58-1.018,2.641-1.018c1.059,0,1.934,0.338,2.635,1.018C131.617,15.729,131.969,16.583,131.969,17.612
		 M130.566,17.616c0-0.962-0.203-1.737-0.609-2.326c-0.412-0.586-0.969-0.882-1.672-0.882c-0.707,0-1.262,0.288-1.672,0.866
		C126.205,15.85,126,16.631,126,17.616c0,0.967,0.203,1.739,0.607,2.315c0.406,0.575,0.967,0.865,1.678,0.865
		c0.709,0,1.268-0.293,1.674-0.877C130.365,19.339,130.566,18.57,130.566,17.616"/>
	<path clip-path="url(#SVGID_2_)" d="M136.543,20.638h0.178v0.313h-3.762v-0.313h0.346c0.344,0,0.578-0.089,0.707-0.271
		c0.121-0.179,0.182-0.513,0.182-1.002V10.48c0-0.346-0.068-0.587-0.205-0.718c-0.133-0.133-0.369-0.2-0.703-0.2h-0.436V9.249
		l2.322-0.233h0.314V19.69c0,0.366,0.074,0.613,0.223,0.747C135.857,20.57,136.135,20.638,136.543,20.638"/>
	<path clip-path="url(#SVGID_2_)" d="M140.994,20.638h0.18v0.313h-3.762v-0.313h0.344c0.348,0,0.582-0.089,0.707-0.271
		c0.123-0.179,0.184-0.513,0.184-1.002V10.48c0-0.346-0.066-0.587-0.203-0.718c-0.137-0.133-0.369-0.2-0.707-0.2h-0.434V9.249
		l2.32-0.233h0.316V19.69c0,0.366,0.072,0.613,0.225,0.747C140.312,20.57,140.59,20.638,140.994,20.638"/>
	<path clip-path="url(#SVGID_2_)" d="M143.938,14.038h0.324v5.669c0,0.372,0.08,0.621,0.24,0.745
		c0.162,0.123,0.457,0.186,0.883,0.186v0.316h-3.684v-0.316c0.537,0,0.883-0.061,1.039-0.184c0.154-0.118,0.23-0.368,0.23-0.747
		v-4.144c0-0.41-0.07-0.68-0.213-0.812c-0.143-0.128-0.494-0.195-1.057-0.195v-0.314L143.938,14.038z M143.641,10.555
		c0.229,0,0.422,0.079,0.58,0.237c0.156,0.159,0.238,0.352,0.238,0.58c0,0.231-0.082,0.426-0.244,0.59
		c-0.16,0.164-0.352,0.246-0.574,0.246c-0.229,0-0.43-0.082-0.596-0.246c-0.164-0.164-0.25-0.359-0.25-0.59
		c0-0.228,0.084-0.421,0.246-0.58C143.203,10.634,143.404,10.555,143.641,10.555"/>
	<path clip-path="url(#SVGID_2_)" d="M148.277,14.037v1.348c0.789-0.898,1.6-1.348,2.434-1.348c0.65,0,1.191,0.221,1.623,0.665
		c0.434,0.443,0.65,1.026,0.65,1.751v3.041c0,0.464,0.08,0.771,0.234,0.92s0.457,0.223,0.908,0.223v0.316h-3.592v-0.316
		c0.445,0,0.75-0.057,0.914-0.173c0.164-0.111,0.246-0.334,0.246-0.664v-3.522c0-0.473-0.141-0.848-0.422-1.126
		c-0.281-0.279-0.643-0.417-1.082-0.417c-0.633,0-1.268,0.438-1.914,1.317v3.293c0,0.558,0.074,0.913,0.217,1.064
		c0.145,0.152,0.447,0.228,0.91,0.228v0.316h-3.549v-0.316c0.516,0,0.832-0.08,0.947-0.246c0.119-0.164,0.178-0.514,0.178-1.047
		v-3.799c0-0.405-0.072-0.671-0.215-0.798s-0.445-0.19-0.91-0.19V14.24l2.098-0.203H148.277z"/>
	<path clip-path="url(#SVGID_2_)" d="M75.497,3.039v5.385l-0.581-0.049c-0.146-1.119-0.416-1.554-0.801-2.219
		c-0.386-0.664-0.818-1.145-1.532-1.535c-0.712-0.39-1.454-0.585-2.219-0.585c-0.864,0-1.578,0.262-2.142,0.789
		c-0.565,0.529-0.847,1.127-0.847,1.802c0,0.515,0.177,0.983,0.537,1.409c0.512,0.622,1.738,1.451,3.674,2.49
		c1.578,0.848,2.654,1.495,3.232,1.949c0.577,0.455,1.023,0.988,1.334,1.603c0.312,0.615,0.468,1.258,0.468,1.93
		c0,1.281-0.498,2.384-1.49,3.31c-0.991,0.926-2.27,1.389-3.832,1.389c-0.49,0-0.952-0.038-1.382-0.112
		c-0.259-0.041-0.792-0.194-1.601-0.455c-0.811-0.26-1.323-0.394-1.541-0.394c-0.208,0-0.371,0.062-0.49,0.188
		c-0.123,0.123-0.213,0.382-0.268,0.772h-0.463v-5.794h0.463c0.213,1.212,0.507,2.12,0.871,2.724
		c0.366,0.602,0.922,1.102,1.675,1.501c0.753,0.399,1.577,0.598,2.473,0.598c1.04,0,1.86-0.274,2.463-0.822
		c0.6-0.548,0.902-1.197,0.902-1.944c0-0.415-0.115-0.834-0.341-1.257c-0.232-0.426-0.585-0.818-1.067-1.183
		c-0.325-0.25-1.208-0.78-2.654-1.591c-1.446-0.81-2.475-1.455-3.083-1.938c-0.613-0.479-1.073-1.013-1.391-1.594
		c-0.315-0.581-0.474-1.22-0.474-1.919c0-1.214,0.466-2.257,1.396-3.132c0.931-0.877,2.115-1.315,3.552-1.315
		c0.898,0,1.848,0.219,2.854,0.66c0.464,0.208,0.792,0.311,0.983,0.311c0.216,0,0.392-0.063,0.53-0.191
		c0.135-0.128,0.246-0.39,0.329-0.779H75.497z"/>
	<path clip-path="url(#SVGID_2_)" d="M80.877,15.505l6.231,6.193c1.022,1.021,1.892,1.718,2.616,2.088
		c0.723,0.369,1.442,0.577,2.166,0.626v0.463h-8.033v-0.463c0.478,0,0.826-0.079,1.037-0.241c0.215-0.162,0.319-0.344,0.319-0.542
		c0-0.199-0.038-0.375-0.118-0.536c-0.078-0.157-0.34-0.451-0.779-0.883l-5.832-5.771v5.446c0,0.855,0.055,1.422,0.164,1.693
		c0.083,0.21,0.256,0.389,0.523,0.538c0.355,0.198,0.736,0.296,1.132,0.296h0.574v0.463h-7.201v-0.463h0.598
		c0.699,0,1.205-0.202,1.52-0.608c0.2-0.267,0.301-0.905,0.301-1.919V10.971c0-0.856-0.041-1.574-0.15-1.857
		c-0.091-0.236-0.231-0.43-0.366-0.503c-0.253-0.137-0.708-0.107-0.708-0.107V7.98h6.007v0.459h-0.574
		c-0.389,0-0.767,0.097-1.132,0.287c-0.257,0.135-0.436,0.334-0.537,0.599c-0.098,0.267-0.149,0.814-0.149,1.646v5.17
		c0.168-0.156,0.734-0.683,1.708-1.582c2.465-2.26,3.958-3.768,4.473-4.523c0.223-0.333,0.336-0.623,0.336-0.872
		c0-0.19-0.088-0.36-0.262-0.503c-0.176-0.146-0.47-0.221-0.883-0.221H83.47V7.98h6.204v0.459c-0.367,0.009-0.697,0.06-0.996,0.151
		c-0.301,0.091-0.666,0.269-1.096,0.528c-0.435,0.261-0.966,0.686-1.598,1.267c-0.181,0.165-1.025,1.017-2.527,2.555L80.877,15.505z
		"/>
</g>
</svg>
