<?xml version="1.0" encoding="utf-8"?>
<!-- Generator: Adobe Illustrator 14.0.0, SVG Export Plug-In . SVG Version: 6.00 Build 43363)  -->
<!DOCTYPE svg PUBLIC "-//W3C//DTD SVG 1.1//EN" "http://www.w3.org/Graphics/SVG/1.1/DTD/svg11.dtd">
<svg version="1.1" id="Layer_1" xmlns="http://www.w3.org/2000/svg" xmlns:xlink="http://www.w3.org/1999/xlink" x="0px" y="0px"
	 width="378.467px" height="72.912px" viewBox="0 0 378.467 72.912" enable-background="new 0 0 378.467 72.912"
	 xml:space="preserve">
<g>
	<defs>
		<rect id="SVGID_1_" x="47.015" y="-0.972" width="515.485" height="99.31"/>
	</defs>
	<clipPath id="SVGID_2_">
		<use xlink:href="#SVGID_1_"  overflow="visible"/>
	</clipPath>
	<path clip-path="url(#SVGID_2_)" d="M83.705,22.604h0.53v4.416h-0.562c-0.131-1.219-0.573-2.173-1.327-2.861
		c-0.752-0.681-1.705-1.023-2.853-1.023c-1.015,0-1.83,0.255-2.449,0.771c-0.626,0.512-0.934,1.199-0.934,2.056
		c0,0.789,0.258,1.516,0.768,2.164c0.517,0.655,1.632,1.494,3.343,2.521c1.987,1.189,3.328,2.229,4.014,3.114
		c0.682,0.893,1.023,1.904,1.023,3.053c0,1.476-0.521,2.738-1.567,3.786c-1.05,1.049-2.31,1.575-3.786,1.575
		c-0.851,0-1.941-0.24-3.266-0.709c-0.545-0.191-0.898-0.286-1.046-0.286c-0.308,0-0.55,0.236-0.719,0.72h-0.563v-5.086h0.563
		c0.013,1.399,0.469,2.526,1.371,3.368c0.901,0.846,1.955,1.27,3.163,1.27c1.142,0,2.06-0.307,2.749-0.92
		c0.686-0.608,1.034-1.422,1.034-2.437c0-0.765-0.284-1.491-0.852-2.188c-0.568-0.696-1.75-1.591-3.545-2.693
		c-1.472-0.905-2.451-1.619-2.946-2.146c-0.489-0.523-0.852-1.097-1.085-1.728c-0.239-0.623-0.354-1.312-0.354-2.062
		c0-1.446,0.478-2.617,1.42-3.517c0.952-0.899,2.181-1.351,3.699-1.351c0.836,0,1.745,0.169,2.732,0.501
		c0.458,0.151,0.777,0.224,0.962,0.224c0.147,0,0.252-0.035,0.301-0.094C83.582,22.975,83.638,22.829,83.705,22.604"/>
	<path clip-path="url(#SVGID_2_)" d="M90.818,29.748v1.959c0.738-0.72,1.407-1.221,2.017-1.52c0.604-0.293,1.28-0.439,2.034-0.439
		c1.513,0,2.765,0.574,3.761,1.728c0.995,1.15,1.499,2.595,1.499,4.338c0,1.796-0.55,3.292-1.649,4.48
		c-1.101,1.187-2.481,1.785-4.144,1.785c-1.146,0-2.319-0.463-3.518-1.381v7.657c0,0.793,0.135,1.315,0.407,1.562
		c0.271,0.253,0.785,0.382,1.534,0.382v0.545h-6.231v-0.545c0.805,0,1.345-0.115,1.621-0.339c0.28-0.223,0.417-0.655,0.417-1.285
		V32.461c0-0.78-0.113-1.282-0.355-1.496c-0.23-0.209-0.794-0.319-1.683-0.319v-0.547l3.726-0.351H90.818z M90.818,32.573v7.288
		c0.908,0.963,1.98,1.444,3.214,1.444c1.041,0,1.915-0.485,2.618-1.46c0.697-0.973,1.052-2.178,1.052-3.629
		c0-1.56-0.354-2.849-1.052-3.867c-0.703-1.016-1.598-1.525-2.679-1.525C92.878,30.824,91.823,31.406,90.818,32.573"/>
	<path clip-path="url(#SVGID_2_)" d="M105.635,29.75h0.562v9.802c0,0.644,0.14,1.075,0.416,1.289
		c0.274,0.213,0.786,0.321,1.523,0.321v0.547h-6.373v-0.547c0.929,0,1.531-0.105,1.801-0.317c0.267-0.204,0.4-0.637,0.4-1.292
		v-7.165c0-0.709-0.124-1.175-0.374-1.405c-0.242-0.221-0.85-0.337-1.827-0.337v-0.544L105.635,29.75z M105.117,23.727
		c0.396,0,0.729,0.136,1.005,0.41c0.272,0.274,0.407,0.608,0.407,1.003c0,0.399-0.135,0.737-0.412,1.02
		c-0.281,0.284-0.611,0.426-1,0.426c-0.396,0-0.738-0.142-1.022-0.426c-0.291-0.283-0.437-0.621-0.437-1.02
		c0-0.395,0.142-0.729,0.426-1.003C104.367,23.863,104.712,23.727,105.117,23.727"/>
	<path clip-path="url(#SVGID_2_)" d="M113.338,29.748v2.33c1.361-1.553,2.761-2.33,4.206-2.33c1.123,0,2.062,0.382,2.812,1.15
		c0.748,0.766,1.122,1.774,1.122,3.027v5.259c0,0.802,0.131,1.333,0.401,1.59c0.263,0.258,0.79,0.385,1.573,0.385v0.548h-6.214
		v-0.548c0.772,0,1.297-0.098,1.581-0.298c0.283-0.193,0.428-0.578,0.428-1.148v-6.091c0-0.818-0.246-1.466-0.734-1.947
		c-0.482-0.483-1.108-0.721-1.868-0.721c-1.092,0-2.189,0.759-3.307,2.278v5.694c0,0.964,0.125,1.579,0.375,1.84
		c0.246,0.264,0.77,0.393,1.567,0.393v0.548h-6.134v-0.548c0.893,0,1.438-0.138,1.639-0.425c0.205-0.284,0.307-0.889,0.307-1.811
		v-6.569c0-0.701-0.118-1.16-0.369-1.379c-0.249-0.22-0.775-0.33-1.576-0.33v-0.547l3.627-0.351H113.338z"/>
	<path clip-path="url(#SVGID_2_)" d="M136.151,38.723v0.847c-0.706,0.902-1.43,1.542-2.16,1.93
		c-0.734,0.382-1.614,0.576-2.639,0.576c-1.825,0-3.328-0.571-4.506-1.711c-1.181-1.142-1.773-2.585-1.773-4.341
		c0-1.77,0.564-3.254,1.696-4.46c1.124-1.21,2.509-1.815,4.147-1.815c1.347,0,2.525,0.452,3.532,1.363
		c1.005,0.912,1.507,1.998,1.507,3.259v0.24H127.4v0.16c0,1.287,0.2,2.401,0.588,3.349c0.393,0.947,0.959,1.687,1.709,2.222
		c0.747,0.536,1.529,0.802,2.34,0.802c0.768,0,1.412-0.157,1.954-0.473C134.531,40.355,135.253,39.703,136.151,38.723 M127.4,34.05
		h6.343v-0.226c0-1.037-0.301-1.863-0.892-2.472c-0.594-0.606-1.335-0.914-2.225-0.914c-0.94,0-1.696,0.323-2.271,0.964
		C127.782,32.043,127.467,32.926,127.4,34.05"/>
	<path clip-path="url(#SVGID_2_)" d="M144.175,41.161h0.308v0.542h-6.501v-0.542h0.595c0.6,0,1.001-0.154,1.222-0.467
		c0.214-0.31,0.316-0.887,0.316-1.733V23.598c0-0.599-0.117-1.015-0.354-1.241c-0.23-0.229-0.64-0.345-1.218-0.345h-0.754v-0.544
		l4.016-0.403h0.543v18.458c0,0.633,0.129,1.06,0.386,1.292C142.992,41.045,143.472,41.161,144.175,41.161"/>
	<path clip-path="url(#SVGID_2_)" d="M152.073,41.161h0.309v0.542h-6.504v-0.542h0.596c0.599,0,1.005-0.154,1.221-0.467
		c0.213-0.31,0.319-0.887,0.319-1.733V23.598c0-0.599-0.119-1.015-0.354-1.241c-0.232-0.229-0.638-0.345-1.219-0.345h-0.753v-0.544
		l4.013-0.403h0.544v18.458c0,0.633,0.129,1.06,0.387,1.292C150.893,41.045,151.369,41.161,152.073,41.161"/>
	<path clip-path="url(#SVGID_2_)" d="M157.354,29.75h0.564v9.802c0,0.644,0.139,1.075,0.417,1.289
		c0.278,0.213,0.786,0.321,1.527,0.321v0.547h-6.374v-0.547c0.931,0,1.531-0.105,1.798-0.317c0.268-0.204,0.403-0.637,0.403-1.292
		v-7.165c0-0.709-0.122-1.175-0.374-1.405c-0.245-0.221-0.854-0.337-1.827-0.337v-0.544L157.354,29.75z M156.844,23.727
		c0.396,0,0.729,0.136,1.003,0.41c0.271,0.274,0.405,0.608,0.405,1.003c0,0.399-0.135,0.737-0.415,1.02
		c-0.277,0.284-0.607,0.426-0.993,0.426c-0.397,0-0.74-0.142-1.025-0.426c-0.292-0.283-0.437-0.621-0.437-1.02
		c0-0.395,0.141-0.729,0.427-1.003C156.091,23.863,156.438,23.727,156.844,23.727"/>
	<path clip-path="url(#SVGID_2_)" d="M228.22,41.707v-0.546c0.823,0,1.385-0.219,1.685-0.667c0.301-0.444,0.446-1.216,0.446-2.322
		V26.424c0-1.131-0.146-1.916-0.442-2.351c-0.291-0.435-0.855-0.649-1.688-0.649V22.88h6.737v0.544
		c-0.787,0-1.334,0.224-1.645,0.671c-0.304,0.451-0.459,1.229-0.459,2.329v5.684l6.156-6.049c0.651-0.655,0.976-1.181,0.976-1.573
		c0-0.548-0.397-0.903-1.188-1.062V22.88h7.109v0.544h-0.933c-0.563,0-1.216,0.189-1.948,0.569c-0.732,0.38-1.401,0.88-2.013,1.501
		l-5.859,5.79l7.785,7.888c0.772,0.795,1.363,1.317,1.782,1.552c0.415,0.238,1.003,0.383,1.75,0.437v0.546h-4.481l-9.136-9.229
		v5.691c0,1.106,0.148,1.878,0.444,2.325c0.295,0.448,0.849,0.667,1.659,0.667v0.546H228.22z"/>
	<path clip-path="url(#SVGID_2_)" d="M251.296,29.75h0.564v9.802c0,0.644,0.135,1.075,0.415,1.289
		c0.277,0.213,0.784,0.321,1.527,0.321v0.547h-6.377v-0.547c0.933,0,1.533-0.105,1.805-0.317c0.265-0.204,0.397-0.637,0.397-1.292
		v-7.165c0-0.709-0.122-1.175-0.371-1.405c-0.244-0.221-0.852-0.337-1.831-0.337v-0.544L251.296,29.75z M250.782,23.727
		c0.396,0,0.733,0.136,1.007,0.41c0.271,0.274,0.405,0.608,0.405,1.003c0,0.399-0.135,0.737-0.415,1.02
		c-0.28,0.284-0.611,0.426-0.997,0.426c-0.395,0-0.735-0.142-1.026-0.426c-0.289-0.283-0.436-0.621-0.436-1.02
		c0-0.395,0.143-0.729,0.426-1.003C250.033,23.863,250.375,23.727,250.782,23.727"/>
	<path clip-path="url(#SVGID_2_)" d="M261.242,41.161h0.312v0.542h-6.506v-0.542h0.595c0.599,0,1.007-0.154,1.223-0.467
		c0.209-0.31,0.317-0.887,0.317-1.733V23.598c0-0.599-0.118-1.015-0.351-1.241c-0.236-0.229-0.642-0.345-1.223-0.345h-0.753v-0.544
		l4.015-0.403h0.544v18.458c0,0.633,0.128,1.06,0.393,1.292C260.061,41.045,260.539,41.161,261.242,41.161"/>
	<path clip-path="url(#SVGID_2_)" d="M273.793,29.748v4.107h-0.562c-0.243-1.069-0.716-1.912-1.408-2.537
		c-0.698-0.618-1.527-0.929-2.488-0.929c-1.159,0-2.101,0.451-2.823,1.349c-0.729,0.9-1.095,2.063-1.095,3.5
		c0,1.583,0.429,2.953,1.29,4.105c0.861,1.155,1.888,1.737,3.073,1.737c0.793,0,1.577-0.214,2.347-0.645
		c0.784-0.424,1.449-1.021,2.003-1.78v0.848c-1.26,1.713-2.972,2.573-5.134,2.573c-1.725,0-3.13-0.548-4.214-1.641
		c-1.088-1.093-1.632-2.506-1.632-4.254c0-1.787,0.589-3.303,1.76-4.556c1.169-1.255,2.587-1.88,4.245-1.88
		c0.739,0,1.564,0.15,2.473,0.453c0.397,0.121,0.672,0.188,0.817,0.188c0.338,0,0.597-0.214,0.786-0.642H273.793z"/>
	<path clip-path="url(#SVGID_2_)" d="M288.349,35.93c0,1.753-0.608,3.22-1.82,4.389c-1.212,1.171-2.732,1.758-4.549,1.758
		c-1.824,0-3.341-0.586-4.557-1.758c-1.216-1.169-1.816-2.636-1.816-4.389c0-1.78,0.601-3.255,1.807-4.422
		c1.212-1.175,2.731-1.76,4.566-1.76c1.829,0,3.343,0.584,4.555,1.76C287.74,32.674,288.349,34.15,288.349,35.93 M285.924,35.937
		c0-1.663-0.352-3.004-1.054-4.022c-0.713-1.013-1.675-1.525-2.891-1.525c-1.224,0-2.182,0.499-2.892,1.498
		c-0.705,0.995-1.06,2.346-1.06,4.049c0,1.672,0.351,3.007,1.049,4.003c0.703,0.995,1.672,1.497,2.902,1.497
		c1.225,0,2.191-0.506,2.895-1.517C285.575,38.916,285.924,37.586,285.924,35.937"/>
	<path clip-path="url(#SVGID_2_)" d="M296.258,41.161h0.308v0.542h-6.505v-0.542h0.599c0.595,0,1-0.154,1.222-0.467
		c0.21-0.31,0.314-0.887,0.314-1.733V23.598c0-0.599-0.118-1.015-0.354-1.241c-0.23-0.229-0.638-0.345-1.216-0.345h-0.753v-0.544
		l4.016-0.403h0.544v18.458c0,0.633,0.128,1.06,0.385,1.292C295.073,41.045,295.552,41.161,296.258,41.161"/>
	<path clip-path="url(#SVGID_2_)" d="M303.955,41.161h0.311v0.542h-6.504v-0.542h0.595c0.601,0,1.006-0.154,1.222-0.467
		c0.213-0.31,0.318-0.887,0.318-1.733V23.598c0-0.599-0.116-1.015-0.353-1.241c-0.236-0.229-0.638-0.345-1.223-0.345h-0.749v-0.544
		l4.013-0.403h0.546v18.458c0,0.633,0.126,1.06,0.389,1.292C302.776,41.045,303.256,41.161,303.955,41.161"/>
	<path clip-path="url(#SVGID_2_)" d="M309.044,29.75h0.561v9.802c0,0.644,0.139,1.075,0.416,1.289
		c0.28,0.213,0.79,0.321,1.526,0.321v0.547h-6.369v-0.547c0.929,0,1.526-0.105,1.797-0.317c0.267-0.204,0.398-0.637,0.398-1.292
		v-7.165c0-0.709-0.122-1.175-0.368-1.405c-0.246-0.221-0.855-0.337-1.827-0.337v-0.544L309.044,29.75z M308.531,23.727
		c0.395,0,0.729,0.136,1.004,0.41c0.269,0.274,0.411,0.608,0.411,1.003c0,0.399-0.143,0.737-0.422,1.02
		c-0.277,0.284-0.608,0.426-0.993,0.426c-0.396,0-0.743-0.142-1.031-0.426c-0.283-0.283-0.432-0.621-0.432-1.02
		c0-0.395,0.146-0.729,0.426-1.003C307.775,23.863,308.123,23.727,308.531,23.727"/>
	<path clip-path="url(#SVGID_2_)" d="M316.549,29.748v2.33c1.364-1.553,2.766-2.33,4.208-2.33c1.124,0,2.061,0.382,2.807,1.15
		c0.749,0.766,1.124,1.774,1.124,3.027v5.259c0,0.802,0.139,1.333,0.405,1.59c0.267,0.258,0.791,0.385,1.57,0.385v0.548h-6.21
		v-0.548c0.77,0,1.297-0.098,1.58-0.298c0.283-0.193,0.426-0.578,0.426-1.148v-6.091c0-0.818-0.242-1.466-0.729-1.947
		c-0.486-0.483-1.111-0.721-1.871-0.721c-1.094,0-2.192,0.759-3.31,2.278v5.694c0,0.964,0.128,1.579,0.374,1.84
		c0.251,0.264,0.774,0.393,1.574,0.393v0.548h-6.137v-0.548c0.892,0,1.439-0.138,1.64-0.425c0.205-0.284,0.306-0.889,0.306-1.811
		v-6.569c0-0.701-0.124-1.16-0.371-1.379c-0.246-0.22-0.77-0.33-1.574-0.33v-0.547l3.628-0.351H316.549z"/>
	<path clip-path="url(#SVGID_2_)" d="M190.698,10.73v9.312l-1.004-0.085c-0.253-1.935-0.72-2.687-1.387-3.836
		c-0.667-1.147-1.414-1.98-2.649-2.654c-1.229-0.675-2.513-1.011-3.836-1.011c-1.492,0-2.729,0.452-3.702,1.364
		c-0.979,0.916-1.465,1.95-1.465,3.116c0,0.89,0.308,1.701,0.929,2.437c0.885,1.075,3.005,2.509,6.352,4.306
		c2.729,1.467,4.591,2.585,5.591,3.37c0.997,0.787,1.769,1.709,2.306,2.771c0.54,1.064,0.811,2.175,0.811,3.336
		c0,2.216-0.861,4.123-2.576,5.723c-1.716,1.601-3.925,2.401-6.626,2.401c-0.848,0-1.646-0.065-2.391-0.194
		c-0.447-0.071-1.369-0.336-2.767-0.787c-1.401-0.449-2.287-0.68-2.665-0.68c-0.358,0-0.64,0.108-0.848,0.326
		c-0.212,0.213-0.368,0.66-0.463,1.335h-0.801V31.261h0.801c0.368,2.096,0.876,3.667,1.507,4.709
		c0.633,1.041,1.593,1.905,2.896,2.596c1.302,0.69,2.728,1.033,4.278,1.033c1.796,0,3.214-0.474,4.257-1.422
		c1.037-0.947,1.561-2.07,1.561-3.362c0-0.718-0.198-1.442-0.591-2.173c-0.4-0.736-1.01-1.415-1.844-2.045
		c-0.563-0.432-2.09-1.349-4.589-2.75c-2.499-1.4-4.279-2.515-5.33-3.351c-1.06-0.83-1.857-1.752-2.404-2.757
		c-0.546-1.004-0.82-2.109-0.82-3.318c0-2.099,0.807-3.903,2.412-5.416c1.61-1.517,3.658-2.275,6.143-2.275
		c1.553,0,3.194,0.379,4.935,1.141c0.803,0.36,1.37,0.537,1.701,0.537c0.375,0,0.678-0.11,0.915-0.331
		c0.235-0.222,0.426-0.674,0.57-1.347H190.698z"/>
	<path clip-path="url(#SVGID_2_)" d="M200.002,32.286l10.775,10.709c1.769,1.766,3.271,2.97,4.524,3.61
		c1.249,0.638,2.494,0.998,3.745,1.082v0.801h-13.891v-0.801c0.825,0,1.428-0.137,1.792-0.417c0.373-0.28,0.553-0.595,0.553-0.937
		c0-0.345-0.065-0.649-0.204-0.928c-0.135-0.271-0.587-0.78-1.347-1.526l-10.085-9.98v9.417c0,1.479,0.094,2.459,0.283,2.928
		c0.144,0.363,0.442,0.672,0.903,0.931c0.615,0.343,1.272,0.511,1.957,0.511h0.993v0.801h-12.451v-0.801h1.033
		c1.209,0,2.083-0.349,2.627-1.051c0.346-0.461,0.52-1.566,0.52-3.319V24.445c0-1.48-0.068-2.722-0.258-3.211
		c-0.157-0.408-0.4-0.744-0.633-0.87c-0.436-0.236-1.225-0.186-1.225-0.186v-0.904h10.387v0.793h-0.993
		c-0.672,0-1.325,0.167-1.957,0.497c-0.444,0.233-0.755,0.578-0.929,1.035c-0.169,0.461-0.258,1.409-0.258,2.846v8.94
		c0.29-0.27,1.27-1.181,2.954-2.736c4.263-3.908,6.844-6.516,7.734-7.822c0.385-0.576,0.582-1.077,0.582-1.508
		c0-0.329-0.153-0.624-0.454-0.87c-0.304-0.252-0.812-0.382-1.525-0.382h-0.671v-0.793h10.729v0.793
		c-0.636,0.016-1.206,0.104-1.723,0.262c-0.521,0.157-1.151,0.465-1.895,0.914c-0.753,0.452-1.671,1.185-2.763,2.19
		c-0.312,0.285-1.773,1.758-4.371,4.417L200.002,32.286z"/>
</g>
</svg>
