<?xml version="1.0" encoding="UTF-8" standalone="no"?>
<svg width="23px" height="24px" viewBox="0 0 23 24" version="1.1" xmlns="http://www.w3.org/2000/svg" xmlns:xlink="http://www.w3.org/1999/xlink">
    <g id="Page-1" stroke="none" stroke-width="1" fill="none" fill-rule="evenodd">
        <g id="zoom" fill="#000000">
            <g id="Page-1">
                <path d="M22.8837209,21.9069767 L14.4705882,13.0325581 C15.5362517,11.6651163 16.2093023,9.96279068 16.2093023,8.09302328 C16.2373461,3.62790697 12.5916553,0 8.1046512,0 C3.61764706,0 0,3.62790697 0,8.0651163 C0,12.5023256 3.64569083,16.1302325 8.1046512,16.1302325 C9.59097127,16.1302325 10.99316,15.6837209 12.1990424,14.9860465 L20.6963064,24 L22.8837209,21.9069767 L22.8837209,21.9069767 L22.8837209,21.9069767 Z M1.79480164,8.0651163 C1.79480164,4.57674418 4.62722298,1.78604651 8.1046512,1.78604651 C11.5820794,1.78604651 14.4145006,4.60465116 14.4145006,8.0651163 C14.4145006,11.5255814 11.6101231,14.372093 8.1046512,14.372093 C4.5991792,14.372093 1.79480164,11.5534884 1.79480164,8.0651163 L1.79480164,8.0651163 L1.79480164,8.0651163 Z" id="Shape"></path>
            </g>
        </g>
    </g>
</svg>